<?xml version="1.0" encoding="UTF-8" standalone="no"?>
<svg
   xmlns:dc="http://purl.org/dc/elements/1.1/"
   xmlns:cc="http://creativecommons.org/ns#"
   xmlns:rdf="http://www.w3.org/1999/02/22-rdf-syntax-ns#"
   xmlns:svg="http://www.w3.org/2000/svg"
   xmlns="http://www.w3.org/2000/svg"
   xmlns:sodipodi="http://sodipodi.sourceforge.net/DTD/sodipodi-0.dtd"
   xmlns:inkscape="http://www.inkscape.org/namespaces/inkscape"
   width="16"
   height="16"
   version="1.1"
   id="svg8"
   sodipodi:docname="ulauncher-indicator.svg"
   inkscape:version="0.92.5 (2060ec1f9f, 2020-04-08)">
  <metadata
     id="metadata12">
    <rdf:RDF>
      <cc:Work
         rdf:about="">
        <dc:format>image/svg+xml</dc:format>
        <dc:type
           rdf:resource="http://purl.org/dc/dcmitype/StillImage" />
      </cc:Work>
    </rdf:RDF>
  </metadata>
  <sodipodi:namedview
     pagecolor="#ffffff"
     bordercolor="#666666"
     borderopacity="1"
     objecttolerance="10"
     gridtolerance="10"
     guidetolerance="10"
     inkscape:pageopacity="0"
     inkscape:pageshadow="2"
     inkscape:window-width="1366"
     inkscape:window-height="741"
     id="namedview10"
     showgrid="false"
     inkscape:zoom="14.75"
     inkscape:cx="14.677966"
     inkscape:cy="8"
     inkscape:window-x="0"
     inkscape:window-y="0"
     inkscape:window-maximized="1"
     inkscape:current-layer="svg8" />
  <defs
     id="defs3">
    <style
       id="current-color-scheme"
       type="text/css">
   .ColorScheme-Text { color:#d3dae3; } .ColorScheme-Highlight { color:#5294e2; }
  </style>
  </defs>
  <g
     id="MPATH5"
     transform="matrix(0.27256208,0,0,0.29031589,1.4961537,1.1579808)">
    <path
       style="color:#d3dae3;fill:currentColor"
       class="ColorScheme-Text"
       d="m 15,0 -3.5,1.7089844 v 0.703125 0.3730468 c 2.5e-5,0.00527 4.51e-4,0.010368 0,0.015625 v 6.5078851 1.1757817 c 0,2.086981 -1.166667,3.229838 -3.5,3.229838 -2.3333333,0 -3.5,-1.457039 -3.5,-3.229838 V 9.4981194 4.6738281 L 1,6.453125 v 2.4375 c 0,1.0469808 0.1357925,2.005601 0.4082031,2.873047 0.2702908,0.867445 0.6896721,1.61352 1.2578125,2.240234 0.4812236,0.531969 1.0749412,0.96409 1.7773438,1.298828 l 0.1347656,0.04297 c 0.078412,0.04401 0.1561135,0.08793 0.2480469,0.125 C 5.6992286,15.822769 6.7376211,16 7.9375,16 L 7.93555,15.9961 c 1.2200183,0 2.2728,-0.170564 3.162109,-0.515625 0.889663,-0.342481 1.619585,-0.826043 2.197266,-1.453125 0.575207,-0.624871 1.005679,-1.377135 1.285156,-2.251953 0.279477,-0.874819 0.417969,-1.8378951 0.417969,-2.8867191 V 8.7070372 C 14.998101,8.704304 15,8.701956 15,8.6992188 Z"
       transform="matrix(2.8302858,0,0,2.7125625,0.85271462,1.8669979)"
       id="path5"
       inkscape:connector-curvature="0" />
  </g>
</svg>
