<?xml version="1.0" encoding="UTF-8" standalone="no"?>
<!-- Generator: Gravit.io -->

<svg
   xmlns:dc="http://purl.org/dc/elements/1.1/"
   xmlns:cc="http://creativecommons.org/ns#"
   xmlns:rdf="http://www.w3.org/1999/02/22-rdf-syntax-ns#"
   xmlns:svg="http://www.w3.org/2000/svg"
   xmlns="http://www.w3.org/2000/svg"
   xmlns:sodipodi="http://sodipodi.sourceforge.net/DTD/sodipodi-0.dtd"
   xmlns:inkscape="http://www.inkscape.org/namespaces/inkscape"
   style="isolation:isolate"
   viewBox="0 0 48 48"
   width="48"
   height="48"
   version="1.1"
   id="svg41"
   sodipodi:docname="preferences-desktop-wallpaper.svg"
   inkscape:version="0.92.2 2405546, 2018-03-11">
  <metadata
     id="metadata45">
    <rdf:RDF>
      <cc:Work
         rdf:about="">
        <dc:format>image/svg+xml</dc:format>
        <dc:type
           rdf:resource="http://purl.org/dc/dcmitype/StillImage" />
      </cc:Work>
    </rdf:RDF>
  </metadata>
  <sodipodi:namedview
     pagecolor="#ffffff"
     bordercolor="#666666"
     borderopacity="1"
     objecttolerance="10"
     gridtolerance="10"
     guidetolerance="10"
     inkscape:pageopacity="0"
     inkscape:pageshadow="2"
     inkscape:window-width="1366"
     inkscape:window-height="748"
     id="namedview43"
     showgrid="false"
     showguides="true"
     inkscape:guide-bbox="true"
     inkscape:zoom="10"
     inkscape:cx="24"
     inkscape:cy="24"
     inkscape:window-x="0"
     inkscape:window-y="0"
     inkscape:window-maximized="1"
     inkscape:current-layer="svg41">
    <sodipodi:guide
       position="2,49.6"
       orientation="1,0"
       id="guide47"
       inkscape:locked="false" />
    <sodipodi:guide
       position="46,50"
       orientation="1,0"
       id="guide49"
       inkscape:locked="false" />
    <sodipodi:guide
       position="-12.7,2"
       orientation="0,1"
       id="guide51"
       inkscape:locked="false" />
    <sodipodi:guide
       position="-11,46"
       orientation="0,1"
       id="guide53"
       inkscape:locked="false" />
  </sodipodi:namedview>
  <defs
     id="defs5">
    <clipPath
       id="_clipPath_ud0JCgUKOK3B2ZwdLQCWgmy7Xb5IIejt">
      <rect
         width="48"
         height="48"
         id="rect2" />
    </clipPath>
  </defs>
  <g
     clip-path="url(#_clipPath_ud0JCgUKOK3B2ZwdLQCWgmy7Xb5IIejt)"
     id="g39"
     transform="matrix(0.91666667,0,0,0.91666667,2,1.9999998)">
    <rect
       width="48"
       height="48"
       style="fill:#000000;fill-opacity:0"
       id="rect7"
       x="0"
       y="0" />
    <g
       id="g37">
      <g
         id="g11">
        <path
           d="m 0,12.376 v 29.967 c 0,1.079 0.99,1.95 2.217,1.95 H 45.783 C 47.01,44.293 48,43.422 48,42.343 V 12.376 Z"
           id="path9"
           inkscape:connector-curvature="0"
           style="fill:#3689e6" />
      </g>
      <g
         id="g15">
        <path
           d="M 0,12.376 V 5.923 C 0,4.697 0.99,3.707 2.217,3.707 H 45.783 C 47.01,3.707 48,4.697 48,5.923 v 6.453 z"
           id="path13"
           inkscape:connector-curvature="0"
           style="fill:#adddfb" />
      </g>
      <g
         id="g35">
        <path
           d="M 3.955,6.455 H 2.734 C 2.65,6.455 2.586,6.391 2.586,6.307 V 5.086 c 0,-0.084 0.064,-0.148 0.148,-0.148 h 1.221 c 0.084,0 0.148,0.064 0.148,0.148 v 1.221 c 0,0.084 -0.064,0.148 -0.148,0.148 z"
           id="path17"
           inkscape:connector-curvature="0"
           style="fill:#004694" />
        <path
           d="M 8.684,6.455 H 7.462 C 7.379,6.455 7.315,6.391 7.315,6.307 V 5.086 c 0,-0.084 0.064,-0.148 0.147,-0.148 h 1.222 c 0.084,0 0.148,0.064 0.148,0.148 v 1.221 c 0,0.084 -0.064,0.148 -0.148,0.148 z"
           id="path19"
           inkscape:connector-curvature="0"
           style="fill:#004694" />
        <path
           d="M 6.32,6.455 H 5.098 C 5.014,6.455 4.95,6.391 4.95,6.307 V 5.086 C 4.95,5.002 5.014,4.938 5.098,4.938 H 6.32 c 0.083,0 0.147,0.064 0.147,0.148 v 1.221 c 0,0.084 -0.064,0.148 -0.147,0.148 z"
           id="path21"
           inkscape:connector-curvature="0"
           style="fill:#004694" />
        <path
           d="M 3.955,8.77 H 2.734 C 2.65,8.77 2.586,8.706 2.586,8.622 V 7.401 c 0,-0.084 0.064,-0.148 0.148,-0.148 h 1.221 c 0.084,0 0.148,0.064 0.148,0.148 v 1.221 c 0,0.084 -0.064,0.148 -0.148,0.148 z"
           id="path23"
           inkscape:connector-curvature="0"
           style="fill:#004694" />
        <path
           d="M 3.955,11.085 H 2.734 c -0.084,0 -0.148,-0.064 -0.148,-0.148 V 9.716 c 0,-0.084 0.064,-0.148 0.148,-0.148 h 1.221 c 0.084,0 0.148,0.064 0.148,0.148 v 1.221 c 0,0.084 -0.064,0.148 -0.148,0.148 z"
           id="path25"
           inkscape:connector-curvature="0"
           style="fill:#004694" />
        <path
           d="M 8.684,8.77 H 7.462 C 7.379,8.77 7.315,8.706 7.315,8.622 V 7.401 c 0,-0.084 0.064,-0.148 0.147,-0.148 h 1.222 c 0.084,0 0.148,0.064 0.148,0.148 v 1.221 c 0,0.084 -0.064,0.148 -0.148,0.148 z"
           id="path27"
           inkscape:connector-curvature="0"
           style="fill:#004694" />
        <path
           d="M 8.684,11.085 H 7.462 c -0.083,0 -0.147,-0.064 -0.147,-0.148 V 9.716 c 0,-0.084 0.064,-0.148 0.147,-0.148 h 1.222 c 0.084,0 0.148,0.064 0.148,0.148 v 1.221 c 0,0.084 -0.064,0.148 -0.148,0.148 z"
           id="path29"
           inkscape:connector-curvature="0"
           style="fill:#004694" />
        <path
           d="M 6.32,8.77 H 5.098 C 5.014,8.77 4.95,8.706 4.95,8.622 V 7.401 C 4.95,7.317 5.014,7.253 5.098,7.253 H 6.32 c 0.083,0 0.147,0.064 0.147,0.148 V 8.622 C 6.467,8.706 6.403,8.77 6.32,8.77 Z"
           id="path31"
           inkscape:connector-curvature="0"
           style="fill:#004694" />
        <path
           d="M 6.32,11.085 H 5.098 C 5.014,11.085 4.95,11.021 4.95,10.937 V 9.716 C 4.95,9.632 5.014,9.568 5.098,9.568 H 6.32 c 0.083,0 0.147,0.064 0.147,0.148 v 1.221 c 0,0.084 -0.064,0.148 -0.147,0.148 z"
           id="path33"
           inkscape:connector-curvature="0"
           style="fill:#004694" />
      </g>
    </g>
  </g>
</svg>
