<?xml version="1.0" encoding="UTF-8" standalone="no"?>
<svg
   xmlns:dc="http://purl.org/dc/elements/1.1/"
   xmlns:cc="http://creativecommons.org/ns#"
   xmlns:rdf="http://www.w3.org/1999/02/22-rdf-syntax-ns#"
   xmlns:svg="http://www.w3.org/2000/svg"
   xmlns="http://www.w3.org/2000/svg"
   xmlns:sodipodi="http://sodipodi.sourceforge.net/DTD/sodipodi-0.dtd"
   xmlns:inkscape="http://www.inkscape.org/namespaces/inkscape"
   height="48"
   width="48"
   version="1.1"
   id="svg29"
   sodipodi:docname="Vbox.svg"
   inkscape:version="0.92.2 2405546, 2018-03-11">
  <metadata
     id="metadata35">
    <rdf:RDF>
      <cc:Work
         rdf:about="">
        <dc:format>image/svg+xml</dc:format>
        <dc:type
           rdf:resource="http://purl.org/dc/dcmitype/StillImage" />
      </cc:Work>
    </rdf:RDF>
  </metadata>
  <defs
     id="defs33" />
  <sodipodi:namedview
     pagecolor="#ffffff"
     bordercolor="#666666"
     borderopacity="1"
     objecttolerance="10"
     gridtolerance="10"
     guidetolerance="10"
     inkscape:pageopacity="0"
     inkscape:pageshadow="2"
     inkscape:window-width="1366"
     inkscape:window-height="768"
     id="namedview31"
     showgrid="false"
     showguides="true"
     inkscape:guide-bbox="true"
     inkscape:zoom="10"
     inkscape:cx="24"
     inkscape:cy="24"
     inkscape:window-x="0"
     inkscape:window-y="0"
     inkscape:window-maximized="1"
     inkscape:current-layer="svg29">
    <sodipodi:guide
       position="-8.1,45.9"
       orientation="0,1"
       id="guide37"
       inkscape:locked="false" />
    <sodipodi:guide
       position="-8.3,1.9"
       orientation="0,1"
       id="guide45"
       inkscape:locked="false" />
    <sodipodi:guide
       position="2,48.4"
       orientation="1,0"
       id="guide47"
       inkscape:locked="false" />
    <sodipodi:guide
       position="46,45.9"
       orientation="1,0"
       id="guide49"
       inkscape:locked="false" />
  </sodipodi:namedview>
  <linearGradient
     id="a"
     gradientUnits="userSpaceOnUse"
     x1="98.123421"
     x2="510.5639"
     y1="1517.4567"
     y2="828.57574">
    <stop
       offset="0"
       stop-color="#7ccbea"
       id="stop2" />
    <stop
       offset="1"
       stop-color="#00b9ff"
       id="stop4" />
  </linearGradient>
  <linearGradient
     id="b"
     gradientUnits="userSpaceOnUse"
     x1="-323.8826"
     x2="75.681633"
     y1="1270.6443"
     y2="1061.4048">
    <stop
       offset="0"
       stop-color="#00b2ed"
       id="stop7" />
    <stop
       offset="1"
       stop-color="#009bdb"
       id="stop9" />
  </linearGradient>
  <linearGradient
     id="c"
     gradientUnits="userSpaceOnUse"
     x1="73.726746"
     x2="90.761726"
     y1="1076.3948"
     y2="571.00085">
    <stop
       offset="0"
       stop-color="#01a8ec"
       id="stop12" />
    <stop
       offset="1"
       stop-color="#74d8ff"
       id="stop14" />
  </linearGradient>
  <g
     transform="matrix(0.04707099,0,0,0.04521081,20.083253,-23.671771)"
     id="g27">
    <g
       id="g23"
       style="fill-rule:evenodd">
      <path
         d="M 82.028076,1539.9862 507.34486,1289.7267 504.44966,818.92235 82.028076,1059.9211 Z"
         id="path17"
         style="fill:url(#a)"
         inkscape:connector-curvature="0" />
      <path
         d="M 82.119773,1541.0423 -343.197,1290.7828 -340.3018,819.97854 82.119773,1060.9772 Z"
         id="path19"
         style="fill:url(#b)"
         inkscape:connector-curvature="0" />
      <path
         d="M -341.53322,821.22299 84.128549,574.45926 506.02169,821.3147 81.854147,1063.2792 Z"
         id="path21"
         style="fill:url(#c)"
         inkscape:connector-curvature="0" />
    </g>
    <path
       d="m 88.947,67.734 c 0,1.544 -1.252,2.802 -2.801,2.802 H 68.989 c -1.401,0 -2.583,-1.028 -2.763,-2.419 L 63.193,46.348 57.07,102.361 c -0.147,1.319 -1.216,2.375 -2.561,2.474 -0.079,0.005 -0.145,0.013 -0.229,0.013 -1.251,0 -2.354,-0.822 -2.685,-2.043 l -9.126,-32.46 -8.988,17.078 c -0.539,1.028 -1.667,1.653 -2.813,1.479 -1.159,-0.139 -2.101,-0.976 -2.388,-2.101 L 23.905,69.311 H 2.803 C 1.262,69.312 0,68.052 0,66.51 0,64.961 1.262,63.708 2.803,63.708 h 23.285 c 1.284,0 2.412,0.875 2.72,2.123 l 3.124,12.487 8.843,-16.789 c 0.528,-1.023 1.631,-1.638 2.764,-1.488 1.137,0.121 2.089,0.925 2.412,2.024 l 7.117,25.319 7.018,-64.09 c 0.149,-1.401 1.321,-2.465 2.743,-2.487 1.576,0.134 2.617,1.026 2.813,2.426 l 5.79,41.699 h 14.719 c 1.544,0.001 2.796,1.26 2.796,2.802 z m 14.824,-2.801 h -8.862 c -1.54,0 -2.802,1.26 -2.802,2.802 0,1.544 1.262,2.802 2.802,2.802 h 8.862 c 1.537,0 2.802,-1.258 2.802,-2.802 0,-1.543 -1.265,-2.802 -2.802,-2.802 z m 19.083,0 h -9.431 c -1.537,0 -2.802,1.26 -2.802,2.802 0,1.544 1.265,2.802 2.802,2.802 h 9.431 c 1.536,0 2.802,-1.258 2.802,-2.802 0,-1.543 -1.266,-2.802 -2.802,-2.802 z"
       transform="matrix(2.6379921,1.6605418,-2.1459459,1.9372958,58.131036,566.16069)"
       id="path25"
       inkscape:connector-curvature="0"
       style="fill:#ffffff;fill-opacity:0.80102001" />
  </g>
</svg>
