<?xml version="1.0" encoding="UTF-8" standalone="no"?><!-- Generator: Gravit.io --><svg xmlns="http://www.w3.org/2000/svg" xmlns:xlink="http://www.w3.org/1999/xlink" style="isolation:isolate" viewBox="0 0 128 128" width="128pt" height="128pt"><defs><clipPath id="_clipPath_qBgDRj4gPS3It3LqutBEN43tJOO0OEli"><rect width="128" height="128"/></clipPath></defs><g clip-path="url(#_clipPath_qBgDRj4gPS3It3LqutBEN43tJOO0OEli)"><rect width="128" height="128" style="fill:rgb(0,0,0)" fill-opacity="0"/><g><g><g><linearGradient id="_lgradient_0" x1="0.24838478059098967" y1="-0.00012876761038427276" x2="0.24838478059098965" y2="0.20169734698079367" gradientTransform="matrix(121.689,0,0,84.889,3.152,15.632)" gradientUnits="userSpaceOnUse"><stop offset="0%" stop-opacity="1" style="stop-color:rgb(120,217,253)"/><stop offset="100%" stop-opacity="1" style="stop-color:rgb(123,222,255)"/></linearGradient><path d=" M 7.695 15.632 C 17.902 15.632 28.109 15.632 38.316 15.632 C 42.865 15.632 44.754 25.416 49.009 25.416 C 72.306 25.416 97.001 25.416 120.298 25.416 C 122.815 25.416 124.841 27.442 124.841 29.959 L 124.841 99.844 C 124.841 102.361 122.815 97.049 120.298 97.049 L 7.695 97.049 C 5.178 97.049 3.152 95.023 3.152 92.506 L 3.152 20.175 C 3.152 17.658 5.178 15.632 7.695 15.632 Z " fill="url(#_lgradient_0)"/><linearGradient id="_lgradient_1" x1="0.43359653641806933" y1="0.0021464479091264366" x2="0.43359653641806917" y2="0.9941945636915506" gradientTransform="matrix(121.689,0,0,81.417,3.152,30.951)" gradientUnits="userSpaceOnUse"><stop offset="0%" stop-opacity="1" style="stop-color:rgb(53,202,252)"/><stop offset="50%" stop-opacity="1" style="stop-color:rgb(80,212,255)"/><stop offset="100%" stop-opacity="1" style="stop-color:rgb(77,203,246)"/></linearGradient><path d=" M 7.695 30.951 L 120.298 30.951 C 122.815 30.951 124.841 32.977 124.841 35.494 L 124.841 107.825 C 124.841 110.342 122.815 112.368 120.298 112.368 L 7.695 112.368 C 5.178 112.368 3.152 110.342 3.152 107.825 L 3.152 35.494 C 3.152 32.977 5.178 30.951 7.695 30.951 Z " fill="url(#_lgradient_1)"/><g opacity="0.97607655"><path d=" M 3.172 104.013 L 3.172 105.397 L 124.848 105.397 L 124.848 104.013 L 3.172 104.013 Z " fill="rgb(59,193,241)"/></g><g opacity="0.97607655"><path d=" M 3.172 107.083 L 3.172 107.818 C 3.172 108.042 3.184 108.251 3.215 108.467 L 124.805 108.467 C 124.836 108.251 124.848 108.042 124.848 107.818 L 124.848 107.083 L 3.172 107.083 Z " fill="rgb(59,193,241)"/></g><g opacity="0.97607655"><linearGradient id="_lgradient_2" x1="0.43643214649499285" y1="0.10905806451603439" x2="0.4364321464949927" y2="1.0401032258064333" gradientTransform="matrix(120.898,0,0,2.681,3.561,109.677)" gradientUnits="userSpaceOnUse"><stop offset="0%" stop-opacity="1" style="stop-color:rgb(59,193,241)"/><stop offset="100%" stop-opacity="1" style="stop-color:rgb(14,149,197)"/></linearGradient><path d=" M 3.561 109.677 C 4.269 111.261 5.859 112.358 7.712 112.358 L 120.308 112.358 C 122.161 112.358 123.751 111.262 124.459 109.677 L 3.561 109.677 Z " fill="url(#_lgradient_2)"/></g></g></g></g><path d=" M 40.879 91.186 L 45.857 91.186 C 46.215 91.186 46.506 91.477 46.506 91.835 L 46.506 95.424 C 46.506 95.782 46.215 96.073 45.857 96.073 L 40.879 96.073 C 40.52 96.073 40.23 95.782 40.23 95.424 L 40.23 91.835 C 40.23 91.477 40.52 91.186 40.879 91.186 L 40.879 91.186 L 40.879 91.186 L 40.879 91.186 L 40.879 91.186 L 40.879 91.186 L 40.879 91.186 L 40.879 91.186 L 40.879 91.186 Z  M 40.879 76.526 L 45.857 76.526 C 46.215 76.526 46.506 76.817 46.506 77.175 L 46.506 80.764 C 46.506 81.122 46.215 81.413 45.857 81.413 L 40.879 81.413 C 40.52 81.413 40.23 81.122 40.23 80.764 L 40.23 77.175 C 40.23 76.817 40.52 76.526 40.879 76.526 L 40.879 76.526 L 40.879 76.526 L 40.879 76.526 L 40.879 76.526 L 40.879 76.526 L 40.879 76.526 L 40.879 76.526 L 40.879 76.526 L 40.879 76.526 L 40.879 76.526 Z  M 40.879 39.876 L 45.857 39.876 C 46.215 39.876 46.506 40.166 46.506 40.524 L 46.506 44.113 C 46.506 44.472 46.215 44.762 45.857 44.762 L 40.879 44.762 C 40.52 44.762 40.23 44.472 40.23 44.113 L 40.23 40.524 C 40.23 40.166 40.52 39.876 40.879 39.876 L 40.879 39.876 L 40.879 39.876 L 40.879 39.876 L 40.879 39.876 L 40.879 39.876 L 40.879 39.876 L 40.879 39.876 L 40.879 39.876 L 40.879 39.876 L 40.879 39.876 L 40.879 39.876 L 40.879 39.876 L 40.879 39.876 L 40.879 39.876 L 40.879 39.876 Z  M 40.879 47.206 L 45.857 47.206 C 46.215 47.206 46.506 47.496 46.506 47.855 L 46.506 51.444 C 46.506 51.802 46.215 52.092 45.857 52.092 L 40.879 52.092 C 40.52 52.092 40.23 51.802 40.23 51.444 L 40.23 47.855 C 40.23 47.496 40.52 47.206 40.879 47.206 L 40.879 47.206 L 40.879 47.206 L 40.879 47.206 L 40.879 47.206 L 40.879 47.206 L 40.879 47.206 L 40.879 47.206 L 40.879 47.206 L 40.879 47.206 L 40.879 47.206 L 40.879 47.206 L 40.879 47.206 L 40.879 47.206 L 40.879 47.206 Z  M 40.879 54.536 L 45.857 54.536 C 46.215 54.536 46.506 54.827 46.506 55.185 L 46.506 58.774 C 46.506 59.132 46.215 59.423 45.857 59.423 L 40.879 59.423 C 40.52 59.423 40.23 59.132 40.23 58.774 L 40.23 55.185 C 40.23 54.827 40.52 54.536 40.879 54.536 L 40.879 54.536 L 40.879 54.536 L 40.879 54.536 L 40.879 54.536 L 40.879 54.536 L 40.879 54.536 L 40.879 54.536 L 40.879 54.536 L 40.879 54.536 L 40.879 54.536 L 40.879 54.536 L 40.879 54.536 L 40.879 54.536 Z  M 47.959 69.196 L 79.338 69.196 L 79.338 95.816 L 47.959 95.816 L 47.959 69.196 L 47.959 69.196 L 47.959 69.196 L 47.959 69.196 L 47.959 69.196 L 47.959 69.196 L 47.959 69.196 L 47.959 69.196 L 47.959 69.196 L 47.959 69.196 L 47.959 69.196 L 47.959 69.196 L 47.959 69.196 L 47.959 69.196 L 47.959 69.196 L 47.959 69.196 L 47.959 69.196 Z  M 40.879 61.866 L 45.857 61.866 C 46.215 61.866 46.506 62.157 46.506 62.515 L 46.506 66.104 C 46.506 66.462 46.215 66.753 45.857 66.753 L 40.879 66.753 C 40.52 66.753 40.23 66.462 40.23 66.104 L 40.23 62.515 C 40.23 62.157 40.52 61.866 40.879 61.866 L 40.879 61.866 L 40.879 61.866 L 40.879 61.866 L 40.879 61.866 L 40.879 61.866 L 40.879 61.866 L 40.879 61.866 L 40.879 61.866 L 40.879 61.866 L 40.879 61.866 L 40.879 61.866 L 40.879 61.866 Z  M 48.299 39.876 L 79.678 39.876 L 79.678 66.753 L 48.299 66.753 L 48.299 39.876 L 48.299 39.876 L 48.299 39.876 L 48.299 39.876 L 48.299 39.876 L 48.299 39.876 L 48.299 39.876 L 48.299 39.876 L 48.299 39.876 L 48.299 39.876 L 48.299 39.876 L 48.299 39.876 L 48.299 39.876 L 48.299 39.876 L 48.299 39.876 L 48.299 39.876 L 48.299 39.876 L 48.299 39.876 Z  M 40.879 69.196 L 45.857 69.196 C 46.215 69.196 46.506 69.487 46.506 69.845 L 46.506 73.434 C 46.506 73.792 46.215 74.083 45.857 74.083 L 40.879 74.083 C 40.52 74.083 40.23 73.792 40.23 73.434 L 40.23 69.845 C 40.23 69.487 40.52 69.196 40.879 69.196 L 40.879 69.196 L 40.879 69.196 L 40.879 69.196 L 40.879 69.196 L 40.879 69.196 L 40.879 69.196 L 40.879 69.196 L 40.879 69.196 L 40.879 69.196 L 40.879 69.196 L 40.879 69.196 Z  M 40.879 83.856 L 45.857 83.856 C 46.215 83.856 46.506 84.147 46.506 84.505 L 46.506 88.094 C 46.506 88.452 46.215 88.743 45.857 88.743 L 40.879 88.743 C 40.52 88.743 40.23 88.452 40.23 88.094 L 40.23 84.505 C 40.23 84.147 40.52 83.856 40.879 83.856 L 40.879 83.856 L 40.879 83.856 L 40.879 83.856 L 40.879 83.856 L 40.879 83.856 L 40.879 83.856 L 40.879 83.856 L 40.879 83.856 L 40.879 83.856 Z  M 82.12 39.876 L 87.098 39.876 C 87.456 39.876 87.747 40.166 87.747 40.524 L 87.747 44.113 C 87.747 44.472 87.456 44.762 87.098 44.762 L 82.12 44.762 C 81.762 44.762 81.471 44.472 81.471 44.113 L 81.471 40.524 C 81.471 40.166 81.762 39.876 82.12 39.876 L 82.12 39.876 L 82.12 39.876 L 82.12 39.876 L 82.12 39.876 L 82.12 39.876 L 82.12 39.876 L 82.12 39.876 Z  M 82.12 47.206 L 87.098 47.206 C 87.456 47.206 87.747 47.496 87.747 47.855 L 87.747 51.444 C 87.747 51.802 87.456 52.092 87.098 52.092 L 82.12 52.092 C 81.762 52.092 81.471 51.802 81.471 51.444 L 81.471 47.855 C 81.471 47.496 81.762 47.206 82.12 47.206 L 82.12 47.206 L 82.12 47.206 L 82.12 47.206 L 82.12 47.206 L 82.12 47.206 L 82.12 47.206 Z  M 82.12 54.536 L 87.098 54.536 C 87.456 54.536 87.747 54.827 87.747 55.185 L 87.747 58.774 C 87.747 59.132 87.456 59.423 87.098 59.423 L 82.12 59.423 C 81.762 59.423 81.471 59.132 81.471 58.774 L 81.471 55.185 C 81.471 54.827 81.762 54.536 82.12 54.536 L 82.12 54.536 L 82.12 54.536 L 82.12 54.536 L 82.12 54.536 L 82.12 54.536 Z  M 82.12 61.866 L 87.098 61.866 C 87.456 61.866 87.747 62.157 87.747 62.515 L 87.747 66.104 C 87.747 66.462 87.456 66.753 87.098 66.753 L 82.12 66.753 C 81.762 66.753 81.471 66.462 81.471 66.104 L 81.471 62.515 C 81.471 62.157 81.762 61.866 82.12 61.866 L 82.12 61.866 L 82.12 61.866 L 82.12 61.866 L 82.12 61.866 Z  M 82.12 69.196 L 87.098 69.196 C 87.456 69.196 87.747 69.487 87.747 69.845 L 87.747 73.434 C 87.747 73.792 87.456 74.083 87.098 74.083 L 82.12 74.083 C 81.762 74.083 81.471 73.792 81.471 73.434 L 81.471 69.845 C 81.471 69.487 81.762 69.196 82.12 69.196 L 82.12 69.196 L 82.12 69.196 L 82.12 69.196 Z  M 82.12 76.526 L 87.098 76.526 C 87.456 76.526 87.747 76.817 87.747 77.175 L 87.747 80.764 C 87.747 81.122 87.456 81.413 87.098 81.413 L 82.12 81.413 C 81.762 81.413 81.471 81.122 81.471 80.764 L 81.471 77.175 C 81.471 76.817 81.762 76.526 82.12 76.526 L 82.12 76.526 L 82.12 76.526 Z  M 82.12 83.856 L 87.098 83.856 C 87.456 83.856 87.747 84.147 87.747 84.505 L 87.747 88.094 C 87.747 88.452 87.456 88.743 87.098 88.743 L 82.12 88.743 C 81.762 88.743 81.471 88.452 81.471 88.094 L 81.471 84.505 C 81.471 84.147 81.762 83.856 82.12 83.856 L 82.12 83.856 Z  M 38.5 38 L 89.5 38 L 89.5 98 L 38.5 98 L 38.5 38 L 38.5 38 L 38.5 38 L 38.5 38 L 38.5 38 L 38.5 38 L 38.5 38 L 38.5 38 L 38.5 38 L 38.5 38 L 38.5 38 L 38.5 38 L 38.5 38 L 38.5 38 L 38.5 38 L 38.5 38 L 38.5 38 L 38.5 38 Z  M 82.12 91.186 L 87.098 91.186 C 87.456 91.186 87.747 91.477 87.747 91.835 L 87.747 95.424 C 87.747 95.782 87.456 96.073 87.098 96.073 L 82.12 96.073 C 81.762 96.073 81.471 95.782 81.471 95.424 L 81.471 91.835 C 81.471 91.477 81.762 91.186 82.12 91.186 Z " fill-rule="evenodd" fill="rgb(3,182,236)"/></g></svg>