<?xml version="1.0" encoding="UTF-8" standalone="no"?><!-- Generator: Gravit.io --><svg xmlns="http://www.w3.org/2000/svg" xmlns:xlink="http://www.w3.org/1999/xlink" style="isolation:isolate" viewBox="0 0 128 128" width="128pt" height="128pt"><defs><clipPath id="_clipPath_zHTUKdkkXoWWXI8mckoTuXOKv0aEYxjo"><rect width="128" height="128"/></clipPath></defs><g clip-path="url(#_clipPath_zHTUKdkkXoWWXI8mckoTuXOKv0aEYxjo)"><rect width="128" height="128" style="fill:rgb(0,0,0)" fill-opacity="0"/><g><g><g><linearGradient id="_lgradient_0" x1="0.24838478059098967" y1="-0.00012876761038427276" x2="0.24838478059098965" y2="0.20169734698079367" gradientTransform="matrix(121.689,0,0,84.889,4.304,17)" gradientUnits="userSpaceOnUse"><stop offset="0%" stop-opacity="1" style="stop-color:rgb(120,217,253)"/><stop offset="100%" stop-opacity="1" style="stop-color:rgb(123,222,255)"/></linearGradient><path d=" M 8.847 17 C 19.054 17 29.261 17 39.468 17 C 44.017 17 45.906 26.784 50.161 26.784 C 73.458 26.784 98.153 26.784 121.45 26.784 C 123.967 26.784 125.993 28.81 125.993 31.327 L 125.993 101.212 C 125.993 103.729 123.967 98.417 121.45 98.417 L 8.847 98.417 C 6.33 98.417 4.304 96.391 4.304 93.874 L 4.304 21.543 C 4.304 19.026 6.33 17 8.847 17 Z " fill="url(#_lgradient_0)"/><linearGradient id="_lgradient_1" x1="0.43359653641806933" y1="0.0021464479091264366" x2="0.43359653641806917" y2="0.9941945636915506" gradientTransform="matrix(121.689,0,0,81.417,4.304,32.319)" gradientUnits="userSpaceOnUse"><stop offset="0%" stop-opacity="1" style="stop-color:rgb(53,202,252)"/><stop offset="50%" stop-opacity="1" style="stop-color:rgb(80,212,255)"/><stop offset="100%" stop-opacity="1" style="stop-color:rgb(77,203,246)"/></linearGradient><path d=" M 8.847 32.319 L 121.45 32.319 C 123.967 32.319 125.993 34.345 125.993 36.862 L 125.993 109.193 C 125.993 111.71 123.967 113.736 121.45 113.736 L 8.847 113.736 C 6.33 113.736 4.304 111.71 4.304 109.193 L 4.304 36.862 C 4.304 34.345 6.33 32.319 8.847 32.319 Z " fill="url(#_lgradient_1)"/><g opacity="0.97607655"><path d=" M 4.324 105.381 L 4.324 106.765 L 126 106.765 L 126 105.381 L 4.324 105.381 Z " fill="rgb(59,193,241)"/></g><g opacity="0.97607655"><path d=" M 4.324 108.451 L 4.324 109.186 C 4.324 109.41 4.336 109.619 4.367 109.835 L 125.957 109.835 C 125.988 109.619 126 109.41 126 109.186 L 126 108.451 L 4.324 108.451 Z " fill="rgb(59,193,241)"/></g><g opacity="0.97607655"><linearGradient id="_lgradient_2" x1="0.43643214649499285" y1="0.10905806451603439" x2="0.4364321464949927" y2="1.0401032258064333" gradientTransform="matrix(120.898,0,0,2.681,4.713,111.045)" gradientUnits="userSpaceOnUse"><stop offset="0%" stop-opacity="1" style="stop-color:rgb(59,193,241)"/><stop offset="100%" stop-opacity="1" style="stop-color:rgb(14,149,197)"/></linearGradient><path d=" M 4.713 111.045 C 5.421 112.629 7.011 113.726 8.864 113.726 L 121.46 113.726 C 123.313 113.726 124.903 112.63 125.611 111.045 L 4.713 111.045 Z " fill="url(#_lgradient_2)"/></g></g></g></g></g></svg>