<?xml version="1.0" encoding="UTF-8" standalone="no"?><!-- Generator: Gravit.io --><svg xmlns="http://www.w3.org/2000/svg" xmlns:xlink="http://www.w3.org/1999/xlink" style="isolation:isolate" viewBox="0 0 128 128" width="128pt" height="128pt"><defs><clipPath id="_clipPath_F8NvHxlLOcntVPmpqk1tHbNFsdINIrFP"><rect width="128" height="128"/></clipPath></defs><g clip-path="url(#_clipPath_F8NvHxlLOcntVPmpqk1tHbNFsdINIrFP)"><rect width="128" height="128" style="fill:rgb(0,0,0)" fill-opacity="0"/><g><g><g><linearGradient id="_lgradient_12" x1="0.24838478059098967" y1="-0.00012876761038427276" x2="0.24838478059098965" y2="0.20169734698079367" gradientTransform="matrix(121.689,0,0,84.889,3.152,15.632)" gradientUnits="userSpaceOnUse"><stop offset="0%" stop-opacity="1" style="stop-color:rgb(120,217,253)"/><stop offset="100%" stop-opacity="1" style="stop-color:rgb(123,222,255)"/></linearGradient><path d=" M 7.695 15.632 C 17.902 15.632 28.109 15.632 38.316 15.632 C 42.865 15.632 44.754 25.416 49.009 25.416 C 72.306 25.416 97.001 25.416 120.298 25.416 C 122.815 25.416 124.841 27.442 124.841 29.959 L 124.841 99.844 C 124.841 102.361 122.815 97.049 120.298 97.049 L 7.695 97.049 C 5.178 97.049 3.152 95.023 3.152 92.506 L 3.152 20.175 C 3.152 17.658 5.178 15.632 7.695 15.632 Z " fill="url(#_lgradient_12)"/><linearGradient id="_lgradient_13" x1="0.43359653641806933" y1="0.0021464479091264366" x2="0.43359653641806917" y2="0.9941945636915506" gradientTransform="matrix(121.689,0,0,81.417,3.152,30.951)" gradientUnits="userSpaceOnUse"><stop offset="0%" stop-opacity="1" style="stop-color:rgb(53,202,252)"/><stop offset="50%" stop-opacity="1" style="stop-color:rgb(80,212,255)"/><stop offset="100%" stop-opacity="1" style="stop-color:rgb(77,203,246)"/></linearGradient><path d=" M 7.695 30.951 L 120.298 30.951 C 122.815 30.951 124.841 32.977 124.841 35.494 L 124.841 107.825 C 124.841 110.342 122.815 112.368 120.298 112.368 L 7.695 112.368 C 5.178 112.368 3.152 110.342 3.152 107.825 L 3.152 35.494 C 3.152 32.977 5.178 30.951 7.695 30.951 Z " fill="url(#_lgradient_13)"/><g opacity="0.97607655"><path d=" M 3.172 104.013 L 3.172 105.397 L 124.848 105.397 L 124.848 104.013 L 3.172 104.013 Z " fill="rgb(59,193,241)"/></g><g opacity="0.97607655"><path d=" M 3.172 107.083 L 3.172 107.818 C 3.172 108.042 3.184 108.251 3.215 108.467 L 124.805 108.467 C 124.836 108.251 124.848 108.042 124.848 107.818 L 124.848 107.083 L 3.172 107.083 Z " fill="rgb(59,193,241)"/></g><g opacity="0.97607655"><linearGradient id="_lgradient_14" x1="0.43643214649499285" y1="0.10905806451603439" x2="0.4364321464949927" y2="1.0401032258064333" gradientTransform="matrix(120.898,0,0,2.681,3.561,109.677)" gradientUnits="userSpaceOnUse"><stop offset="0%" stop-opacity="1" style="stop-color:rgb(59,193,241)"/><stop offset="100%" stop-opacity="1" style="stop-color:rgb(14,149,197)"/></linearGradient><path d=" M 3.561 109.677 C 4.269 111.261 5.859 112.358 7.712 112.358 L 120.308 112.358 C 122.161 112.358 123.751 111.262 124.459 109.677 L 3.561 109.677 Z " fill="url(#_lgradient_14)"/></g></g></g></g><text transform="matrix(1,0,0,1,35.75,100.54)" style="font-family:'Hack Nerd Font Mono';font-weight:400;font-size:90px;font-style:normal;fill:#03b6ec;stroke:none;"></text></g></svg>