<?xml version="1.0" encoding="UTF-8" standalone="no"?><!-- Generator: Gravit.io --><svg xmlns="http://www.w3.org/2000/svg" xmlns:xlink="http://www.w3.org/1999/xlink" style="isolation:isolate" viewBox="0 0 128 128" width="128pt" height="128pt"><defs><clipPath id="_clipPath_XQhttLgiUPw8xnVzsEVGCT21WBLGgSkR"><rect width="128" height="128"/></clipPath></defs><g clip-path="url(#_clipPath_XQhttLgiUPw8xnVzsEVGCT21WBLGgSkR)"><clipPath id="_clipPath_8T2T3KmYxMV4LmShVUPup9xIQifOD0a4"><rect x="0" y="0" width="128" height="128" transform="matrix(1,0,0,1,0,0)" fill="rgb(255,255,255)"/></clipPath><g clip-path="url(#_clipPath_8T2T3KmYxMV4LmShVUPup9xIQifOD0a4)"><g><g style="opacity:0.25;"><g opacity="0.25"><path d=" M 17.278 3.647 L 17.278 126.905 L 110.722 126.905 L 110.722 57.74 C 110.544 54.598 110.338 51.786 109.541 48.935 C 108.731 46.035 107.453 43.289 105.927 40.661 C 103.973 37.298 100.672 35.13 97.738 32.374 C 95.957 30.76 92.113 26.925 87.459 22.347 C 82.844 17.806 77.43 12.532 72.911 8.434 C 71.576 7.23 69.637 5.98 67.836 5.258 C 66.437 4.697 64.792 4.348 63.203 4.114 C 61.565 3.872 59.987 3.752 58.802 3.647 L 17.278 3.647 L 17.278 3.647 Z " fill="rgb(0,0,0)"/></g></g><clipPath id="_clipPath_eQ4jvyxcfu1zjjXAcP3NuYXHOZPUopdx"><path d=" M -256 -256 L 256 -256 L 256 256 L -256 256 L -256 -256 Z  M 17.278 1.661 L 17.278 124.92 L 110.722 124.92 L 110.722 55.755 C 110.544 52.613 110.338 49.801 109.541 46.95 C 108.731 44.05 107.453 41.303 105.927 38.675 C 103.973 35.313 100.672 33.145 97.738 30.389 C 95.957 28.775 92.113 24.94 87.459 20.362 C 82.844 15.821 77.43 10.547 72.911 6.449 C 71.576 5.244 69.637 3.994 67.836 3.273 C 66.437 2.712 64.792 2.363 63.203 2.129 C 61.565 1.887 59.987 1.767 58.802 1.661 L 17.278 1.661 L 17.278 1.661 Z " fill-rule="evenodd" fill="rgb(255,255,255)"/></clipPath><g clip-path="url(#_clipPath_eQ4jvyxcfu1zjjXAcP3NuYXHOZPUopdx)"><linearGradient id="_lgradient_0" x1="0.9968173234309268" y1="-0.002078271066151771" x2="0.295287113998415" y2="1.2249736393712234" gradientTransform="matrix(93.444,0,0,123.259,17.278,1.661)" gradientUnits="userSpaceOnUse"><stop offset="0%" stop-opacity="1" style="stop-color:rgb(217,217,217)"/><stop offset="100%" stop-opacity="1" style="stop-color:rgb(255,255,255)"/></linearGradient><mask id="_mask_UmIrvxKpeRcwYxYfOKyD17natw6s0i9Y" x="-200%" y="-200%" width="400%" height="400%"><rect x="-200%" y="-200%" width="400%" height="400%" style="fill:white;"/><path d=" M 17.278 1.661 L 17.278 124.92 L 110.722 124.92 L 110.722 55.755 C 110.544 52.613 110.338 49.801 109.541 46.95 C 108.731 44.05 107.453 41.303 105.927 38.675 C 103.973 35.313 100.672 33.145 97.738 30.389 C 95.957 28.775 92.113 24.94 87.459 20.362 C 82.844 15.821 77.43 10.547 72.911 6.449 C 71.576 5.244 69.637 3.994 67.836 3.273 C 66.437 2.712 64.792 2.363 63.203 2.129 C 61.565 1.887 59.987 1.767 58.802 1.661 L 17.278 1.661 L 17.278 1.661 Z " fill="black" stroke="none"/></mask><path d=" M 17.278 1.661 L 17.278 124.92 L 110.722 124.92 L 110.722 55.755 C 110.544 52.613 110.338 49.801 109.541 46.95 C 108.731 44.05 107.453 41.303 105.927 38.675 C 103.973 35.313 100.672 33.145 97.738 30.389 C 95.957 28.775 92.113 24.94 87.459 20.362 C 82.844 15.821 77.43 10.547 72.911 6.449 C 71.576 5.244 69.637 3.994 67.836 3.273 C 66.437 2.712 64.792 2.363 63.203 2.129 C 61.565 1.887 59.987 1.767 58.802 1.661 L 17.278 1.661 L 17.278 1.661 Z " fill="url(#_lgradient_0)" mask="url(#_mask_UmIrvxKpeRcwYxYfOKyD17natw6s0i9Y)" vector-effect="non-scaling-stroke" stroke-width="2.268" stroke="rgb(128,128,128)" stroke-opacity="100" stroke-linejoin="miter" stroke-linecap="butt" stroke-miterlimit="4"/><path d=" M 17.278 1.661 L 17.278 124.92 L 110.722 124.92 L 110.722 55.755 C 110.544 52.613 110.338 49.801 109.541 46.95 C 108.731 44.05 107.453 41.303 105.927 38.675 C 103.973 35.313 100.672 33.145 97.738 30.389 C 95.957 28.775 92.113 24.94 87.459 20.362 C 82.844 15.821 77.43 10.547 72.911 6.449 C 71.576 5.244 69.637 3.994 67.836 3.273 C 66.437 2.712 64.792 2.363 63.203 2.129 C 61.565 1.887 59.987 1.767 58.802 1.661 L 17.278 1.661 L 17.278 1.661 Z " fill="url(#_lgradient_0)"/></g><linearGradient id="_lgradient_1" x1="0.9968173234309268" y1="-0.002078271066151771" x2="0.295287113998415" y2="1.2249736393712234" gradientTransform="matrix(93.444,0,0,123.259,17.278,1.661)" gradientUnits="userSpaceOnUse"><stop offset="0%" stop-opacity="1" style="stop-color:rgb(217,217,217)"/><stop offset="100%" stop-opacity="1" style="stop-color:rgb(255,255,255)"/></linearGradient><path d=" M 17.278 1.661 L 17.278 124.92 L 110.722 124.92 L 110.722 55.755 C 110.544 52.613 110.338 49.801 109.541 46.95 C 108.731 44.05 107.453 41.303 105.927 38.675 C 103.973 35.313 100.672 33.145 97.738 30.389 C 95.957 28.775 92.113 24.94 87.459 20.362 C 82.844 15.821 77.43 10.547 72.911 6.449 C 71.576 5.244 69.637 3.994 67.836 3.273 C 66.437 2.712 64.792 2.363 63.203 2.129 C 61.565 1.887 59.987 1.767 58.802 1.661 L 17.278 1.661 L 17.278 1.661 Z " fill="url(#_lgradient_1)"/><g style="opacity:0.24800002;"><g opacity="0.24800002"><path d=" M 74.65 8.885 C 74.712 8.985 76.771 12.304 77.401 14.172 C 79.107 17.999 78.378 29.186 78.347 35.56 C 78.452 34.827 96.075 30.285 105.223 38.601 C 105.165 38.498 105.039 38.298 104.75 37.897 C 104.477 37.518 104.06 36.956 103.346 36.226 C 101.35 33.941 102.473 35.907 100.302 33.648 C 98.425 31.946 94.37 27.902 89.462 23.073 C 84.771 18.458 79.307 13.135 74.65 8.885 L 74.65 8.885 L 74.65 8.885 Z " fill="rgb(0,0,0)"/></g></g><clipPath id="_clipPath_wTioLOtbacoaLKiAh049ZCj8Q4j4sA2o"><path d=" M -256 -256 L 256 -256 L 256 256 L -256 256 L -256 -256 Z  M 73.414 6.909 C 73.472 7.004 75.425 10.151 76.022 11.922 C 77.64 15.55 77.127 24.085 77.097 30.129 C 78.718 30.045 96.598 27.343 104.795 37.023 C 104.684 36.832 104.407 36.673 104.252 36.369 C 102.359 34.202 99.945 32.462 97.738 30.389 C 95.957 28.774 92.113 24.94 87.459 20.362 C 83.011 15.985 77.829 10.938 73.414 6.909 Z " fill-rule="evenodd" fill="rgb(255,255,255)"/></clipPath><g clip-path="url(#_clipPath_wTioLOtbacoaLKiAh049ZCj8Q4j4sA2o)"><mask id="_mask_UzZLyTMESItlEnqkMZotx81oe6AjxTbY" x="-200%" y="-200%" width="400%" height="400%"><rect x="-200%" y="-200%" width="400%" height="400%" style="fill:white;"/><path d=" M 73.414 6.909 C 73.472 7.004 75.425 10.151 76.022 11.922 C 77.64 15.55 77.127 24.085 77.097 30.129 C 78.718 30.045 96.598 27.343 104.795 37.023 C 104.684 36.832 104.407 36.673 104.252 36.369 C 102.359 34.202 99.945 32.462 97.738 30.389 C 95.957 28.774 92.113 24.94 87.459 20.362 C 83.011 15.985 77.829 10.938 73.414 6.909 Z " fill="black" stroke="none"/></mask><path d=" M 73.414 6.909 C 73.472 7.004 75.425 10.151 76.022 11.922 C 77.64 15.55 77.127 24.085 77.097 30.129 C 78.718 30.045 96.598 27.343 104.795 37.023 C 104.684 36.832 104.407 36.673 104.252 36.369 C 102.359 34.202 99.945 32.462 97.738 30.389 C 95.957 28.774 92.113 24.94 87.459 20.362 C 83.011 15.985 77.829 10.938 73.414 6.909 Z " fill="rgb(255,255,255)" mask="url(#_mask_UzZLyTMESItlEnqkMZotx81oe6AjxTbY)" vector-effect="non-scaling-stroke" stroke-width="2.268" stroke="rgb(128,128,128)" stroke-opacity="100" stroke-linejoin="miter" stroke-linecap="butt" stroke-miterlimit="4"/><path d=" M 73.414 6.909 C 73.472 7.004 75.425 10.151 76.022 11.922 C 77.64 15.55 77.127 24.085 77.097 30.129 C 78.718 30.045 96.598 27.343 104.795 37.023 C 104.684 36.832 104.407 36.673 104.252 36.369 C 102.359 34.202 99.945 32.462 97.738 30.389 C 95.957 28.774 92.113 24.94 87.459 20.362 C 83.011 15.985 77.829 10.938 73.414 6.909 Z " fill="rgb(255,255,255)"/></g><path d=" M 73.414 6.909 C 73.472 7.004 75.425 10.151 76.022 11.922 C 77.64 15.55 77.127 24.085 77.097 30.129 C 78.718 30.045 96.598 27.343 104.795 37.023 C 104.684 36.832 104.407 36.673 104.252 36.369 C 102.359 34.202 99.945 32.462 97.738 30.389 C 95.957 28.774 92.113 24.94 87.459 20.362 C 83.011 15.985 77.829 10.938 73.414 6.909 Z " fill="rgb(255,255,255)"/><g><text transform="matrix(1.764,0,0,1.958,29.253,94.502)" style="font-family:'Akaash';font-weight:400;font-size:44px;font-style:normal;font-variant-ligatures:none;fill:#FFCB23;stroke:none;">JS</text></g></g></g></g></svg>