<?xml version="1.0" standalone="no"?><!-- Generator: Gravit.io --><svg xmlns="http://www.w3.org/2000/svg" xmlns:xlink="http://www.w3.org/1999/xlink" style="isolation:isolate" viewBox="0 0 48 48" width="48" height="48"><defs><clipPath id="_clipPath_w78NmK47Kx4fanQXeOqDxfSQsRlyShzN"><rect width="48" height="48"/></clipPath></defs><g clip-path="url(#_clipPath_w78NmK47Kx4fanQXeOqDxfSQsRlyShzN)"><g><defs><radialGradient id="_rgradient_9" fx="6392.8567%" fy="98736.216%" cx="6392.8567%" cy="98736.216%" r="6011.2034%"><stop offset="0%" style="stop-color:#D06C4A"/><stop offset="100%" style="stop-color:#A02812"/></radialGradient></defs><path d="M 6.347 5.326 L 35.042 0.84 C 36.82 0.562 38.495 1.779 38.781 3.556 L 44.354 38.292 C 44.639 40.07 43.427 41.738 41.648 42.016 L 12.953 46.503 C 11.175 46.781 9.5 45.564 9.215 43.787 L 3.642 9.05 C 3.356 7.273 4.569 5.604 6.347 5.326 Z" style="stroke:none;fill:url(#_rgradient_9);stroke-miterlimit:10;"/><path d="M 6.475 6.725 L 35.358 2.209 C 36.433 2.041 37.445 2.776 37.617 3.85 L 43.155 38.368 C 43.327 39.441 42.595 40.449 41.521 40.617 L 12.637 45.134 C 11.562 45.302 10.55 44.566 10.378 43.493 L 4.84 8.975 C 4.668 7.901 5.4 6.893 6.475 6.725 Z" style="stroke:none;fill:#FFFFFF;stroke-miterlimit:10;"/><defs><linearGradient id="_lgradient_18" x1="-0.21737630566773075" y1="1.0264892962589887" x2="0.8465901790441641" y2="-0.004682486288180243"><stop offset="0%" style="stop-color:#CCCCCC"/><stop offset="100%" style="stop-color:#FFFFFF"/></linearGradient><linearGradient id="_lgradient_19" x1="-0.21737630566773075" y1="1.0264892962589887" x2="0.8465901790441641" y2="-0.004682486288180243"><stop offset="0%" style="stop-color:#CCCCCC"/><stop offset="100%" style="stop-color:#FFFFFF"/></linearGradient></defs><g style="mix-blend-mode:normal;" opacity="0.91687658"><path d="M 7.219 7.361 L 34.85 3.041 C 35.924 2.873 36.936 3.608 37.109 4.682 L 42.411 37.732 C 42.583 38.805 41.851 39.813 40.776 39.981 L 13.145 44.302 C 12.071 44.47 11.059 43.734 10.887 42.661 L 5.584 9.611 C 5.412 8.537 6.144 7.529 7.219 7.361 Z" style="stroke:none;fill:url(#_lgradient_19);stroke-miterlimit:10;"/></g><path d=" M 39.449 14.817 L 39.271 13.708 L 37.363 1.814 L 37.363 1.814 L 24.287 3.445 L 24.287 3.445 L 39.449 14.817 Z " fill-rule="evenodd" fill="rgb(160,40,18)"/><g><path d=" M 25.371 30.023 L 21.819 34.706 L 20.66 36.237 L 22.274 35.975 L 25.623 31.551 L 30.22 34.687 L 31.833 34.426 L 30.243 33.341 L 25.371 30.023 L 25.371 30.023 Z " fill="rgb(45,45,45)"/><defs><radialGradient id="_rgradient_10" fx="50.00442727045604%" fy="48.350327758120315%" cx="50.00442727045604%" cy="48.350327758120315%" r="3319.5621%"><stop offset="0%" style="stop-color:rgba(201,43,43,0.81)"/><stop offset="100%" style="stop-color:#A02812"/></radialGradient></defs><path d="M 12.58 17.937 L 33.623 14.521 C 34.166 14.433 34.68 14.802 34.769 15.345 L 36.886 28.197 C 36.976 28.74 36.607 29.253 36.064 29.341 L 15.021 32.756 C 14.478 32.845 13.964 32.475 13.874 31.932 L 11.758 19.081 C 11.668 18.538 12.036 18.025 12.58 17.937 Z" style="stroke:none;fill:url(#_rgradient_10);stroke-miterlimit:10;"/><rect x="20.653" y="20.732" width="14.728" height="8.534" transform="matrix(0.987,-0.159,0.163,0.987,-3.726,4.798)" fill="rgb(255,255,255)"/><rect x="13.012" y="22.577" width="6.528" height="0.832" transform="matrix(0.987,-0.159,0.163,0.987,-3.548,2.901)" fill="rgb(255,255,255)" fill-opacity="0.5"/><rect x="13.224" y="23.861" width="6.528" height="0.832" transform="matrix(0.987,-0.159,0.163,0.987,-3.755,2.952)" fill="rgb(255,255,255)" fill-opacity="0.5"/><rect x="13.428" y="25.092" width="6.528" height="0.832" transform="matrix(0.987,-0.159,0.163,0.987,-3.953,3.001)" fill="rgb(255,255,255)" fill-opacity="0.5"/><rect x="13.635" y="26.341" width="6.528" height="0.832" transform="matrix(0.987,-0.159,0.163,0.987,-4.154,3.051)" fill="rgb(255,255,255)" fill-opacity="0.5"/><rect x="12.559" y="19.212" width="21.902" height="0.832" transform="matrix(0.987,-0.159,0.163,0.987,-2.906,4.008)" fill="rgb(255,255,255)" fill-opacity="0.5"/><path d=" M 22.335 29.354 L 25.919 24.429 L 29.478 25.705 L 33.017 21.32" fill="none" vector-effect="non-scaling-stroke" stroke-width="0.047" stroke="rgb(57,163,228)" stroke-linejoin="miter" stroke-linecap="butt" stroke-miterlimit="4"/></g></g></g></svg>