<?xml version="1.0" standalone="no"?><!-- Generator: Gravit.io --><svg xmlns="http://www.w3.org/2000/svg" xmlns:xlink="http://www.w3.org/1999/xlink" style="isolation:isolate" viewBox="0 0 48 48" width="48" height="48"><defs><clipPath id="_clipPath_nkywYBxhMvdc64ZVxWB3OwG0FiC9ygHG"><rect width="48" height="48"/></clipPath></defs><g clip-path="url(#_clipPath_nkywYBxhMvdc64ZVxWB3OwG0FiC9ygHG)"><g><defs><radialGradient id="_rgradient_8" fx="6392.8567%" fy="98736.216%" cx="6392.8567%" cy="98736.216%" r="6011.2034%"><stop offset="0%" style="stop-color:#26CADA"/><stop offset="100%" style="stop-color:#005C94"/></radialGradient></defs><path d="M 6.37 5.381 L 35.024 0.841 C 36.814 0.557 38.496 1.78 38.78 3.57 L 44.359 38.811 C 44.643 40.6 43.42 42.283 41.63 42.567 L 12.976 47.107 C 11.187 47.391 9.504 46.168 9.22 44.378 L 3.641 9.137 C 3.357 7.348 4.58 5.665 6.37 5.381 Z" style="stroke:none;fill:url(#_rgradient_8);stroke-miterlimit:10;"/><path d="M 6.489 6.8 L 35.348 2.227 C 36.43 2.056 37.446 2.794 37.618 3.876 L 43.16 38.879 C 43.331 39.96 42.592 40.977 41.511 41.148 L 12.652 45.721 C 11.57 45.892 10.554 45.153 10.382 44.072 L 4.841 9.069 C 4.669 7.988 5.408 6.971 6.489 6.8 Z" style="stroke:none;fill:#FFFFFF;stroke-miterlimit:10;"/><defs><linearGradient id="_lgradient_12" x1="-0.21737630566773075" y1="1.0264892962589887" x2="0.8465901790441641" y2="-0.004682486288180243"><stop offset="0%" style="stop-color:#CCCCCC"/><stop offset="100%" style="stop-color:#FFFFFF"/></linearGradient><linearGradient id="_lgradient_13" x1="-0.21737630566773075" y1="1.0264892962589887" x2="0.8465901790441641" y2="-0.004682486288180243"><stop offset="0%" style="stop-color:#CCCCCC"/><stop offset="100%" style="stop-color:#FFFFFF"/></linearGradient></defs><g style="mix-blend-mode:normal;" opacity="0.91687658"><path d="M 7.234 7.444 L 34.84 3.07 C 35.921 2.899 36.938 3.637 37.109 4.719 L 42.415 38.234 C 42.587 39.316 41.848 40.332 40.767 40.504 L 13.16 44.878 C 12.079 45.049 11.062 44.31 10.891 43.229 L 5.585 9.713 C 5.414 8.632 6.152 7.615 7.234 7.444 Z" style="stroke:none;fill:url(#_lgradient_13);stroke-miterlimit:10;"/></g><path d=" M 39.451 15.002 L 39.273 13.878 L 37.365 1.825 L 37.365 1.825 L 24.29 3.478 L 24.29 3.478 L 39.451 15.002 Z " fill-rule="evenodd" fill="rgb(0,92,148)"/><g style="mix-blend-mode:normal;" opacity="0.91687658"><path d="M 9.739 23.057 L 21.399 21.209 C 21.414 21.207 21.429 21.218 21.431 21.233 L 21.658 22.665 C 21.66 22.68 21.65 22.694 21.634 22.697 L 9.974 24.544 C 9.959 24.547 9.945 24.536 9.942 24.521 L 9.715 23.089 C 9.713 23.074 9.724 23.059 9.739 23.057 Z" style="stroke:none;fill:#5F5F5F;stroke-miterlimit:10;opacity:0.45528457;"/></g><g style="mix-blend-mode:normal;" opacity="0.91687658"><path d="M 10.131 25.536 L 21.791 23.689 C 21.807 23.686 21.821 23.697 21.824 23.712 L 22.05 25.144 C 22.053 25.159 22.042 25.174 22.027 25.176 L 10.367 27.023 C 10.352 27.026 10.337 27.015 10.335 27 L 10.108 25.568 C 10.105 25.553 10.116 25.538 10.131 25.536 Z" style="stroke:none;fill:#5F5F5F;stroke-miterlimit:10;opacity:0.45528457;"/></g><g style="mix-blend-mode:normal;" opacity="0.91687658"><path d="M 10.514 27.953 L 22.174 26.106 C 22.189 26.103 22.204 26.114 22.206 26.129 L 22.433 27.561 C 22.436 27.576 22.425 27.591 22.41 27.593 L 10.75 29.441 C 10.734 29.443 10.72 29.432 10.717 29.417 L 10.491 27.985 C 10.488 27.97 10.499 27.956 10.514 27.953 Z" style="stroke:none;fill:#5F5F5F;stroke-miterlimit:10;opacity:0.45528457;"/></g><g style="mix-blend-mode:normal;" opacity="0.91687658"><path d="M 10.907 30.432 L 22.567 28.585 C 22.582 28.582 22.596 28.593 22.599 28.608 L 22.826 30.04 C 22.828 30.055 22.817 30.07 22.802 30.072 L 11.142 31.92 C 11.127 31.922 11.112 31.912 11.11 31.896 L 10.883 30.465 C 10.881 30.449 10.891 30.435 10.907 30.432 Z" style="stroke:none;fill:#5F5F5F;stroke-miterlimit:10;opacity:0.45528457;"/></g><g style="mix-blend-mode:normal;" opacity="0.91687658"><path d="M 11.279 32.787 L 22.939 30.94 C 22.955 30.937 22.969 30.948 22.972 30.963 L 23.198 32.395 C 23.201 32.41 23.19 32.425 23.175 32.427 L 11.515 34.275 C 11.5 34.277 11.485 34.267 11.483 34.251 L 11.256 32.82 C 11.254 32.804 11.264 32.79 11.279 32.787 Z" style="stroke:none;fill:#5F5F5F;stroke-miterlimit:10;opacity:0.45528457;"/></g><g style="mix-blend-mode:normal;" opacity="0.91687658"><path d="M 11.654 35.154 L 39.215 30.787 C 39.23 30.785 39.245 30.795 39.247 30.811 L 39.474 32.242 C 39.476 32.257 39.466 32.272 39.45 32.274 L 11.89 36.641 C 11.874 36.644 11.86 36.633 11.857 36.618 L 11.631 35.186 C 11.628 35.171 11.639 35.156 11.654 35.154 Z" style="stroke:none;fill:#5F5F5F;stroke-miterlimit:10;opacity:0.45528457;"/></g><g style="mix-blend-mode:normal;" opacity="0.91687658"><path d="M 12.029 37.52 L 39.589 33.154 C 39.605 33.151 39.619 33.162 39.622 33.177 L 39.848 34.609 C 39.851 34.624 39.84 34.639 39.825 34.641 L 12.264 39.008 C 12.249 39.01 12.234 39 12.232 38.984 L 12.005 37.553 C 12.003 37.537 12.013 37.523 12.029 37.52 Z" style="stroke:none;fill:#5F5F5F;stroke-miterlimit:10;opacity:0.45528457;"/></g><g style="mix-blend-mode:normal;" opacity="0.91687658"><path d="M 12.404 39.887 L 39.964 35.52 C 39.98 35.518 39.994 35.528 39.996 35.544 L 40.223 36.975 C 40.226 36.991 40.215 37.005 40.2 37.007 L 12.639 41.374 C 12.624 41.377 12.609 41.366 12.607 41.351 L 12.38 39.919 C 12.378 39.904 12.388 39.889 12.404 39.887 Z" style="stroke:none;fill:#5F5F5F;stroke-miterlimit:10;opacity:0.45528457;"/></g><g><linearGradient id="_lgradient_14" x1="13.763157366738136" y1="-3.843661995423858" x2="13.763157366738136" y2="-4.364957846031864" gradientTransform="matrix(14.505,-2.298,1.787,11.286,22.659,21.004)" gradientUnits="userSpaceOnUse"><stop offset="0%" stop-opacity="1" style="stop-color:rgb(232,156,66)"/><stop offset="100%" stop-opacity="1" style="stop-color:rgb(250,202,103)"/></linearGradient><path d=" M 22.659 21.004 L 24.445 32.289 L 38.95 29.991 L 37.164 18.705 L 22.659 21.004 Z " fill="url(#_lgradient_14)"/><g opacity="0.05"><path d=" M 26.461 27.582 C 26.399 27.587 26.332 27.602 26.267 27.637 C 26.013 27.77 26.011 27.953 26 28.042 C 25.99 28.131 25.995 28.199 26.003 28.269 C 26.017 28.411 26.047 28.557 26.076 28.704 C 26.101 28.824 26.123 28.931 26.14 29.025 C 26.051 29.061 25.953 29.1 25.84 29.144 C 25.697 29.199 25.554 29.254 25.424 29.319 C 25.358 29.351 25.297 29.383 25.223 29.443 C 25.186 29.473 25.143 29.508 25.098 29.578 C 25.052 29.648 25.003 29.773 25.029 29.912 C 25.08 30.182 25.261 30.237 25.346 30.273 C 25.432 30.308 25.499 30.323 25.572 30.337 C 25.718 30.365 25.876 30.382 26.032 30.397 C 26.16 30.41 26.273 30.424 26.373 30.436 C 26.38 30.527 26.386 30.628 26.393 30.744 C 26.402 30.889 26.41 31.034 26.433 31.171 C 26.444 31.24 26.456 31.306 26.492 31.391 C 26.509 31.433 26.532 31.482 26.586 31.544 C 26.641 31.605 26.749 31.688 26.895 31.706 C 27.18 31.739 27.295 31.593 27.358 31.525 C 27.421 31.458 27.457 31.399 27.495 31.337 C 27.571 31.213 27.638 31.075 27.704 30.938 C 27.758 30.826 27.806 30.726 27.851 30.639 C 27.944 30.66 28.047 30.684 28.165 30.711 C 28.312 30.746 28.461 30.782 28.606 30.801 C 28.678 30.811 28.745 30.82 28.841 30.813 C 28.889 30.809 28.947 30.803 29.026 30.772 C 29.105 30.74 29.221 30.666 29.285 30.539 C 29.411 30.29 29.302 30.141 29.256 30.063 C 29.209 29.986 29.163 29.937 29.114 29.884 C 29.015 29.779 28.898 29.678 28.783 29.578 C 28.689 29.496 28.607 29.423 28.535 29.358 C 28.585 29.279 28.642 29.192 28.708 29.094 C 28.79 28.97 28.873 28.846 28.94 28.721 C 28.973 28.658 29.004 28.598 29.028 28.509 C 29.04 28.464 29.053 28.411 29.047 28.33 C 29.041 28.249 29.004 28.121 28.898 28.025 C 28.691 27.837 28.509 27.894 28.417 27.914 C 28.325 27.933 28.26 27.96 28.191 27.989 C 28.055 28.048 27.915 28.123 27.778 28.198 C 27.665 28.259 27.565 28.313 27.476 28.36 C 27.414 28.291 27.347 28.213 27.27 28.124 C 27.173 28.013 27.076 27.902 26.973 27.804 C 26.922 27.756 26.874 27.71 26.793 27.662 C 26.752 27.638 26.703 27.61 26.62 27.592 C 26.578 27.583 26.522 27.577 26.461 27.582 L 26.461 27.582 Z  M 27.313 28.43 C 27.315 28.43 27.328 28.432 27.331 28.432 C 27.326 28.432 27.313 28.44 27.31 28.441 C 27.303 28.442 27.297 28.436 27.313 28.431 L 27.313 28.43 Z  M 27.582 28.472 C 27.606 28.486 27.606 28.494 27.601 28.49 C 27.599 28.49 27.587 28.477 27.582 28.472 Z  M 26.297 28.949 C 26.313 28.939 26.317 28.95 26.311 28.952 C 26.308 28.952 26.293 28.96 26.286 28.963 C 26.289 28.963 26.295 28.951 26.297 28.949 Z  M 26.165 29.178 C 26.165 29.183 26.168 29.197 26.168 29.2 C 26.169 29.208 26.161 29.201 26.165 29.178 Z  M 28.405 29.233 C 28.4 29.228 28.409 29.227 28.421 29.249 C 28.418 29.245 28.406 29.236 28.405 29.233 Z  M 28.452 29.491 C 28.446 29.517 28.437 29.52 28.44 29.514 C 28.441 29.51 28.449 29.497 28.452 29.491 Z  M 26.353 30.256 C 26.353 30.26 26.355 30.276 26.356 30.282 C 26.346 30.258 26.351 30.25 26.353 30.256 Z  M 26.533 30.456 C 26.538 30.456 26.552 30.46 26.555 30.46 C 26.563 30.463 26.557 30.468 26.533 30.456 Z  M 27.937 30.481 C 27.942 30.475 27.944 30.484 27.925 30.503 C 27.928 30.498 27.935 30.484 27.937 30.481 Z  M 27.668 30.605 C 27.672 30.605 27.689 30.609 27.696 30.61 C 27.669 30.615 27.662 30.605 27.668 30.605 Z " fill="rgb(0,0,0)"/></g><g opacity="0.07000002"><path d=" M 22.736 21.495 L 23.727 27.754 C 24.065 27.789 24.497 27.794 24.997 27.715 C 26.273 27.512 26.022 27.109 27.121 26.935 C 28.219 26.761 28.978 27.365 30.463 27.13 C 32.303 26.838 32.544 25.632 34 25.401 C 35.136 25.221 35.32 25.832 36.571 25.634 C 37.416 25.5 37.644 25.127 38.133 24.832 L 37.241 19.197 L 22.736 21.495 Z " fill="rgb(0,0,0)"/></g><linearGradient id="_lgradient_15" x1="13.701423024433957" y1="-9.139658062720287" x2="13.701423024433957" y2="-8.105686777929215" gradientTransform="matrix(14.505,-2.298,0.965,6.092,22.659,21.004)" gradientUnits="userSpaceOnUse"><stop offset="0%" stop-opacity="1" style="stop-color:rgb(11,133,233)"/><stop offset="100%" stop-opacity="1" style="stop-color:rgb(105,209,239)"/></linearGradient><path d=" M 22.659 21.004 L 23.571 26.763 C 23.802 26.829 24.089 26.877 24.384 26.83 C 25.057 26.724 25.629 26.07 26.753 25.892 C 27.877 25.714 28.832 26.27 30.249 26.046 C 31.667 25.821 31.828 24.772 33.635 24.486 C 35.442 24.2 35.373 24.859 36.504 24.68 C 37.284 24.556 37.573 24.228 37.999 23.982 L 37.164 18.705 L 22.659 21.004 Z " fill="url(#_lgradient_15)"/><g opacity="0.1"><path d=" M 33.501 23.637 C 32.551 23.788 31.997 24.154 31.548 24.484 C 31.099 24.814 30.765 25.094 30.115 25.197 C 29.447 25.303 28.893 25.225 28.34 25.137 C 27.787 25.049 27.231 24.946 26.618 25.043 C 26.016 25.139 25.554 25.358 25.18 25.561 C 24.805 25.764 24.518 25.939 24.249 25.981 C 24.006 26.02 23.755 25.973 23.546 25.914 C 23.51 25.903 23.472 25.9 23.435 25.906 L 23.607 26.996 C 23.954 27.027 24.383 27.026 24.875 26.948 C 25.541 26.843 25.861 26.666 26.1 26.515 C 26.338 26.365 26.483 26.25 26.999 26.168 C 27.495 26.09 27.92 26.189 28.438 26.29 C 28.956 26.391 29.56 26.487 30.342 26.363 C 31.313 26.21 31.896 25.798 32.373 25.428 C 32.851 25.057 33.215 24.74 33.878 24.635 C 34.401 24.552 34.665 24.647 35.012 24.754 C 35.359 24.86 35.783 24.973 36.449 24.867 C 37.298 24.732 37.62 24.355 38.016 24.09 L 37.865 23.133 C 37.834 23.138 37.804 23.149 37.777 23.164 C 37.31 23.434 37.091 23.716 36.37 23.831 C 35.85 23.913 35.668 23.813 35.302 23.701 C 34.935 23.59 34.433 23.489 33.501 23.637 L 33.501 23.637 Z " fill="rgb(255,255,255)"/></g><g opacity="0.3"><path d=" M 33.573 24.091 C 31.765 24.378 31.604 25.426 30.187 25.651 C 28.769 25.876 27.814 25.319 26.69 25.497 C 25.566 25.675 24.995 26.329 24.321 26.435 C 24.026 26.482 23.739 26.434 23.508 26.368 L 23.599 26.942 C 23.937 26.978 24.368 26.982 24.868 26.903 C 26.144 26.701 25.894 26.297 26.992 26.123 C 28.091 25.949 28.85 26.554 30.335 26.318 C 32.174 26.027 32.416 24.82 33.871 24.59 C 35.007 24.41 35.192 25.02 36.442 24.822 C 37.287 24.688 37.516 24.316 38.005 24.02 L 37.936 23.587 C 37.511 23.834 37.221 24.161 36.442 24.285 C 35.31 24.464 35.38 23.805 33.573 24.091 Z " fill="rgb(255,255,255)"/></g><path d=" M 33.635 24.486 C 31.828 24.772 31.667 25.821 30.249 26.046 C 28.832 26.27 27.877 25.714 26.753 25.892 C 25.629 26.07 25.057 26.724 24.384 26.83 C 24.089 26.877 23.802 26.829 23.571 26.763 L 23.661 27.337 C 23.999 27.373 24.431 27.377 24.931 27.298 C 26.207 27.096 25.956 26.692 27.055 26.518 C 28.153 26.344 28.912 26.948 30.397 26.713 C 32.237 26.422 32.478 25.215 33.934 24.985 C 35.07 24.805 35.254 25.415 36.505 25.217 C 37.35 25.083 37.578 24.711 38.067 24.415 L 37.999 23.982 C 37.573 24.228 37.284 24.556 36.504 24.68 C 35.373 24.859 35.442 24.2 33.635 24.486 L 33.635 24.486 Z " fill="rgb(255,255,255)"/><g opacity="0.15"><path d=" M 26.479 28.013 C 26.34 28.086 26.681 29.13 26.607 29.264 C 26.535 29.394 25.445 29.687 25.471 29.83 C 25.499 29.978 26.651 29.973 26.761 30.08 C 26.867 30.184 26.806 31.261 26.957 31.279 C 27.114 31.298 27.482 30.251 27.625 30.183 C 27.762 30.117 28.814 30.488 28.881 30.356 C 28.95 30.219 28.028 29.579 28.006 29.429 C 27.985 29.285 28.696 28.438 28.586 28.339 C 28.472 28.236 27.532 28.884 27.377 28.86 C 27.226 28.837 26.614 27.943 26.479 28.013 L 26.479 28.013 Z " fill="rgb(0,0,0)"/></g><linearGradient id="_lgradient_16" x1="58.611082522225146" y1="-16.50517684908796" x2="58.674304078539464" y2="-16.710366821076995" gradientTransform="matrix(3.275,-0.519,0.517,3.263,25.152,27.808)" gradientUnits="userSpaceOnUse"><stop offset="0%" stop-opacity="1" style="stop-color:rgb(236,69,2)"/><stop offset="100%" stop-opacity="1" style="stop-color:rgb(254,118,23)"/></linearGradient><path d=" M 26.415 27.61 C 26.55 27.539 27.163 28.434 27.314 28.457 C 27.469 28.482 28.408 27.832 28.522 27.935 C 28.632 28.035 27.921 28.882 27.942 29.026 C 27.964 29.175 28.886 29.817 28.817 29.954 C 28.751 30.086 27.698 29.714 27.56 29.78 C 27.418 29.848 27.05 30.894 26.893 30.876 C 26.742 30.858 26.802 29.782 26.696 29.678 C 26.587 29.571 25.436 29.576 25.409 29.427 C 25.382 29.284 26.472 28.99 26.544 28.861 C 26.618 28.726 26.275 27.683 26.415 27.61 L 26.415 27.61 Z " fill="url(#_lgradient_16)"/><g opacity="0.5"><path d=" M 26.424 27.607 L 26.389 27.654 C 26.389 27.654 26.387 27.654 26.387 27.654 C 26.336 27.87 26.61 28.736 26.543 28.858 C 26.54 28.863 26.536 28.871 26.53 28.876 L 26.568 28.894 C 27.285 28.99 26.458 27.643 26.434 27.605 C 26.431 27.606 26.428 27.606 26.425 27.607 L 26.424 27.607 Z " fill="rgb(157,15,6)"/></g><g opacity="0.75"><linearGradient id="_lgradient_17" x1="59.153736389604965" y1="-32.49050107584847" x2="59.309937984141946" y2="-32.90020516282769" gradientTransform="matrix(3.237,-0.513,0.264,1.667,25.409,29.402)" gradientUnits="userSpaceOnUse"><stop offset="0%" stop-opacity="1" style="stop-color:rgb(122,15,1)"/><stop offset="100%" stop-opacity="1" style="stop-color:rgb(211,24,7)"/></linearGradient><path d=" M 25.622 29.369 C 25.487 29.39 25.41 29.41 25.41 29.41 L 25.41 29.41 L 25.415 29.441 C 25.517 29.573 26.59 29.574 26.696 29.677 C 26.802 29.78 26.742 30.857 26.893 30.875 C 27.05 30.893 27.418 29.847 27.56 29.779 C 27.696 29.714 28.736 30.08 28.815 29.955 L 28.813 29.955 C 27.849 29.092 26.205 29.271 25.622 29.369 L 25.622 29.369 Z " fill="url(#_lgradient_17)"/></g></g></g></g></svg>