<?xml version="1.0" standalone="no"?><!-- Generator: Gravit.io --><svg xmlns="http://www.w3.org/2000/svg" xmlns:xlink="http://www.w3.org/1999/xlink" style="isolation:isolate" viewBox="0 0 48 48" width="48" height="48"><defs><clipPath id="_clipPath_cOJhnm9nXwvbYZAV3OPaQRrN8N9Bkl6G"><rect width="48" height="48"/></clipPath></defs><g clip-path="url(#_clipPath_cOJhnm9nXwvbYZAV3OPaQRrN8N9Bkl6G)"><g><defs><radialGradient id="_rgradient_5" fx="6392.8567%" fy="98736.216%" cx="6392.8567%" cy="98736.216%" r="6011.2034%"><stop offset="0%" style="stop-color:#F0F17B"/><stop offset="100%" style="stop-color:#CAAA25"/></radialGradient></defs><path d="M 6.37 5.381 L 35.024 0.841 C 36.814 0.557 38.496 1.78 38.78 3.57 L 44.359 38.811 C 44.643 40.6 43.42 42.283 41.63 42.567 L 12.976 47.107 C 11.187 47.391 9.504 46.168 9.22 44.378 L 3.641 9.137 C 3.357 7.348 4.58 5.665 6.37 5.381 Z" style="stroke:none;fill:url(#_rgradient_5);stroke-miterlimit:10;"/><path d="M 6.489 6.8 L 35.348 2.227 C 36.43 2.056 37.446 2.794 37.618 3.876 L 43.16 38.879 C 43.331 39.96 42.592 40.977 41.511 41.148 L 12.652 45.721 C 11.57 45.892 10.554 45.153 10.382 44.072 L 4.841 9.069 C 4.669 7.988 5.408 6.971 6.489 6.8 Z" style="stroke:none;fill:#FFFFFF;stroke-miterlimit:10;"/><defs><linearGradient id="_lgradient_8" x1="-0.21737630566773075" y1="1.0264892962589887" x2="0.8465901790441641" y2="-0.004682486288180243"><stop offset="0%" style="stop-color:#CCCCCC"/><stop offset="100%" style="stop-color:#FFFFFF"/></linearGradient><linearGradient id="_lgradient_9" x1="-0.21737630566773075" y1="1.0264892962589887" x2="0.8465901790441641" y2="-0.004682486288180243"><stop offset="0%" style="stop-color:#CCCCCC"/><stop offset="100%" style="stop-color:#FFFFFF"/></linearGradient></defs><g style="mix-blend-mode:normal;" opacity="0.91687658"><path d="M 7.234 7.444 L 34.84 3.07 C 35.921 2.899 36.938 3.637 37.109 4.719 L 42.415 38.234 C 42.587 39.316 41.848 40.332 40.767 40.504 L 13.16 44.878 C 12.079 45.049 11.062 44.31 10.891 43.229 L 5.585 9.713 C 5.414 8.632 6.152 7.615 7.234 7.444 Z" style="stroke:none;fill:url(#_lgradient_9);stroke-miterlimit:10;"/></g><path d=" M 39.451 15.002 L 39.273 13.878 L 37.365 1.825 L 37.365 1.825 L 24.29 3.478 L 24.29 3.478 L 39.451 15.002 Z " fill-rule="evenodd" fill="rgb(202,170,37)"/><path d=" M 25.473 21.062 C 26.032 24.593 23.624 27.909 20.095 28.468 C 16.565 29.027 13.25 26.618 12.691 23.087 C 12.132 19.556 14.541 16.241 18.07 15.681 C 21.6 15.122 24.914 17.531 25.473 21.062 Z " fill-rule="evenodd" fill="rgb(255,0,0)" fill-opacity="0.62045456"/><path d=" M 30.906 33.707 L 23.518 34.878 L 16.129 36.048 L 18.81 29.062 L 21.491 22.076 L 26.198 27.891 L 30.906 33.707 Z " fill="rgb(226,169,36)" fill-opacity="0.75454544"/><rect x="23.468" y="16.844" width="11.523" height="11.528" transform="matrix(0.988,-0.156,0.156,0.988,-3.175,4.852)" fill="rgb(226,153,36)" fill-opacity="0.75454544"/><path d=" M 31.666 33.496 C 31.736 33.941 31.433 34.359 30.988 34.429 C 30.543 34.5 30.125 34.196 30.055 33.751 C 29.985 33.306 30.288 32.889 30.733 32.818 C 31.178 32.748 31.595 33.051 31.666 33.496 L 31.666 33.496 Z " fill-rule="evenodd" fill="rgb(105,217,67)" fill-opacity="0.7600897"/><path d=" M 22.239 22.093 C 22.31 22.538 22.006 22.956 21.562 23.026 C 21.117 23.097 20.699 22.793 20.629 22.348 C 20.558 21.903 20.862 21.485 21.307 21.415 C 21.751 21.344 22.169 21.648 22.239 22.093 L 22.239 22.093 Z " fill-rule="evenodd" fill="rgb(105,217,67)" fill-opacity="0.76008971"/><path d=" M 17.117 35.865 C 17.187 36.31 16.884 36.728 16.439 36.798 C 15.994 36.869 15.576 36.565 15.506 36.12 C 15.435 35.675 15.739 35.257 16.184 35.187 C 16.628 35.116 17.046 35.42 17.117 35.865 L 17.117 35.865 Z " fill-rule="evenodd" fill="rgb(105,217,67)" fill-opacity="0.76008971"/></g></g></svg>