<?xml version="1.0" standalone="no"?><!-- Generator: Gravit.io --><svg xmlns="http://www.w3.org/2000/svg" xmlns:xlink="http://www.w3.org/1999/xlink" style="isolation:isolate" viewBox="0 0 48 48" width="48" height="48"><defs><clipPath id="_clipPath_oPkmpb86avuaFUZpGfHvckDjTGHiy8d2"><rect width="48" height="48"/></clipPath></defs><g clip-path="url(#_clipPath_oPkmpb86avuaFUZpGfHvckDjTGHiy8d2)"><g><defs><radialGradient id="_rgradient_4" fx="6392.8566%" fy="98736.218%" cx="6392.8566%" cy="98736.218%" r="6011.2034%"><stop offset="0%" style="stop-color:#62D668"/><stop offset="100%" style="stop-color:#159614"/></radialGradient></defs><path d="M 6.369 5.378 L 35.025 0.841 C 36.814 0.558 38.496 1.78 38.78 3.569 L 44.359 38.784 C 44.642 40.572 43.42 42.255 41.631 42.538 L 12.975 47.075 C 11.186 47.359 9.503 46.136 9.22 44.347 L 3.641 9.133 C 3.357 7.344 4.58 5.661 6.369 5.378 Z" style="stroke:none;fill:url(#_rgradient_4);stroke-miterlimit:10;"/><path d="M 6.489 6.796 L 35.349 2.226 C 36.43 2.055 37.446 2.793 37.618 3.874 L 43.159 38.852 C 43.331 39.933 42.592 40.949 41.511 41.12 L 12.651 45.69 C 11.57 45.861 10.553 45.123 10.382 44.042 L 4.841 9.064 C 4.669 7.983 5.408 6.967 6.489 6.796 Z" style="stroke:none;fill:#FFFFFF;stroke-miterlimit:10;"/><defs><linearGradient id="_lgradient_6" x1="-0.21737630566773075" y1="1.0264892962589887" x2="0.8465901790441641" y2="-0.004682486288180243"><stop offset="0%" style="stop-color:#CCCCCC"/><stop offset="100%" style="stop-color:#FFFFFF"/></linearGradient><linearGradient id="_lgradient_7" x1="-0.21737630566773075" y1="1.0264892962589887" x2="0.8465901790441641" y2="-0.004682486288180243"><stop offset="0%" style="stop-color:#CCCCCC"/><stop offset="100%" style="stop-color:#FFFFFF"/></linearGradient></defs><g style="mix-blend-mode:normal;" opacity="0.91687658"><path d="M 7.233 7.44 L 34.84 3.068 C 35.921 2.897 36.938 3.636 37.109 4.717 L 42.415 38.208 C 42.586 39.289 41.848 40.305 40.767 40.476 L 13.159 44.848 C 12.079 45.019 11.062 44.28 10.891 43.199 L 5.585 9.708 C 5.413 8.627 6.152 7.611 7.233 7.44 Z" style="stroke:none;fill:url(#_lgradient_7);stroke-miterlimit:10;"/></g><path d=" M 39.451 14.992 L 39.273 13.869 L 37.365 1.824 L 37.365 1.824 L 24.29 3.476 L 24.29 3.476 L 39.451 14.992 Z " fill-rule="evenodd" fill="rgb(21,150,20)"/><g><path d="M 9.023 22.189 L 16.196 21.053 C 16.211 21.051 16.225 21.061 16.228 21.076 L 16.68 23.933 C 16.683 23.948 16.672 23.963 16.657 23.965 L 9.485 25.101 C 9.47 25.103 9.455 25.093 9.453 25.077 L 9 22.22 C 8.998 22.205 9.008 22.191 9.023 22.189 Z" style="stroke:none;fill:#0EAA0F;stroke-miterlimit:10;"/><path d="M 9.023 22.189 L 16.196 21.053 C 16.211 21.051 16.225 21.061 16.228 21.076 L 16.68 23.933 C 16.683 23.948 16.672 23.963 16.657 23.965 L 9.485 25.101 C 9.47 25.103 9.455 25.093 9.453 25.077 L 9 22.22 C 8.998 22.205 9.008 22.191 9.023 22.189 Z" style="fill:none;stroke:#116000;stroke-width:0.2022403415571701;stroke-miterlimit:2;"/><path d="M 16.3 21.037 L 23.472 19.901 C 23.487 19.899 23.502 19.909 23.504 19.924 L 23.957 22.781 C 23.959 22.796 23.949 22.81 23.934 22.813 L 16.761 23.948 C 16.746 23.951 16.732 23.94 16.73 23.925 L 16.277 21.068 C 16.274 21.053 16.285 21.039 16.3 21.037 Z" style="stroke:none;fill:#0EAA0F;stroke-miterlimit:2;"/><path d="M 16.3 21.037 L 23.472 19.901 C 23.487 19.899 23.502 19.909 23.504 19.924 L 23.957 22.781 C 23.959 22.796 23.949 22.81 23.934 22.813 L 16.761 23.948 C 16.746 23.951 16.732 23.94 16.73 23.925 L 16.277 21.068 C 16.274 21.053 16.285 21.039 16.3 21.037 Z" style="fill:none;stroke:#116000;stroke-width:0.2022403415571701;stroke-miterlimit:2;"/><path d="M 23.449 19.905 L 30.622 18.769 C 30.637 18.767 30.651 18.777 30.654 18.792 L 31.106 21.649 C 31.109 21.664 31.098 21.678 31.083 21.681 L 23.911 22.816 C 23.896 22.819 23.881 22.808 23.879 22.793 L 23.426 19.936 C 23.424 19.921 23.434 19.907 23.449 19.905 Z" style="stroke:none;fill:#0EAA0F;stroke-miterlimit:2;"/><path d="M 23.449 19.905 L 30.622 18.769 C 30.637 18.767 30.651 18.777 30.654 18.792 L 31.106 21.649 C 31.109 21.664 31.098 21.678 31.083 21.681 L 23.911 22.816 C 23.896 22.819 23.881 22.808 23.879 22.793 L 23.426 19.936 C 23.424 19.921 23.434 19.907 23.449 19.905 Z" style="fill:none;stroke:#116000;stroke-width:0.2022403415571701;stroke-miterlimit:2;"/><path d="M 30.726 18.752 L 37.898 17.617 C 37.913 17.614 37.928 17.625 37.93 17.64 L 38.383 20.497 C 38.385 20.512 38.375 20.526 38.36 20.529 L 31.187 21.664 C 31.172 21.667 31.158 21.656 31.156 21.641 L 30.703 18.784 C 30.701 18.769 30.711 18.755 30.726 18.752 Z" style="stroke:none;fill:#0EAA0F;stroke-miterlimit:2;"/><path d="M 30.726 18.752 L 37.898 17.617 C 37.913 17.614 37.928 17.625 37.93 17.64 L 38.383 20.497 C 38.385 20.512 38.375 20.526 38.36 20.529 L 31.187 21.664 C 31.172 21.667 31.158 21.656 31.156 21.641 L 30.703 18.784 C 30.701 18.769 30.711 18.755 30.726 18.752 Z" style="fill:none;stroke:#116000;stroke-width:0.2022403415571701;stroke-miterlimit:2;"/><path d="M 9.473 25.025 L 16.645 23.89 C 16.66 23.887 16.675 23.898 16.677 23.913 L 17.13 26.77 C 17.132 26.785 17.122 26.799 17.107 26.802 L 9.934 27.937 C 9.919 27.94 9.905 27.929 9.902 27.914 L 9.45 25.057 C 9.447 25.042 9.458 25.028 9.473 25.025 Z" style="stroke:none;fill:#0EAA0F;stroke-miterlimit:2;opacity:0.60538121;"/><path d="M 9.473 25.025 L 16.645 23.89 C 16.66 23.887 16.675 23.898 16.677 23.913 L 17.13 26.77 C 17.132 26.785 17.122 26.799 17.107 26.802 L 9.934 27.937 C 9.919 27.94 9.905 27.929 9.902 27.914 L 9.45 25.057 C 9.447 25.042 9.458 25.028 9.473 25.025 Z" style="fill:none;stroke:#116000;stroke-width:0.2022403415571701;stroke-miterlimit:2;"/><path d="M 16.749 23.873 L 23.922 22.738 C 23.937 22.735 23.951 22.746 23.954 22.761 L 24.406 25.618 C 24.409 25.633 24.398 25.647 24.383 25.65 L 17.211 26.785 C 17.196 26.788 17.181 26.777 17.179 26.762 L 16.726 23.905 C 16.724 23.89 16.734 23.876 16.749 23.873 Z" style="stroke:none;fill:#0EAA0F;stroke-miterlimit:2;opacity:0.60538121;"/><path d="M 16.749 23.873 L 23.922 22.738 C 23.937 22.735 23.951 22.746 23.954 22.761 L 24.406 25.618 C 24.409 25.633 24.398 25.647 24.383 25.65 L 17.211 26.785 C 17.196 26.788 17.181 26.777 17.179 26.762 L 16.726 23.905 C 16.724 23.89 16.734 23.876 16.749 23.873 Z" style="fill:none;stroke:#116000;stroke-width:0.2022403415571701;stroke-miterlimit:2;"/><path d="M 23.899 22.741 L 31.071 21.606 C 31.086 21.603 31.101 21.614 31.103 21.629 L 31.556 24.486 C 31.558 24.501 31.548 24.515 31.533 24.518 L 24.36 25.653 C 24.345 25.656 24.331 25.645 24.328 25.63 L 23.876 22.773 C 23.873 22.758 23.884 22.744 23.899 22.741 Z" style="stroke:none;fill:#0EAA0F;stroke-miterlimit:2;opacity:0.60538121;"/><path d="M 23.899 22.741 L 31.071 21.606 C 31.086 21.603 31.101 21.614 31.103 21.629 L 31.556 24.486 C 31.558 24.501 31.548 24.515 31.533 24.518 L 24.36 25.653 C 24.345 25.656 24.331 25.645 24.328 25.63 L 23.876 22.773 C 23.873 22.758 23.884 22.744 23.899 22.741 Z" style="fill:none;stroke:#116000;stroke-width:0.2022403415571701;stroke-miterlimit:2;"/><path d="M 31.175 21.589 L 38.348 20.454 C 38.363 20.451 38.377 20.461 38.38 20.477 L 38.832 23.334 C 38.835 23.349 38.824 23.363 38.809 23.365 L 31.637 24.501 C 31.622 24.503 31.607 24.493 31.605 24.478 L 31.152 21.621 C 31.15 21.606 31.16 21.592 31.175 21.589 Z" style="stroke:none;fill:#0EAA0F;stroke-miterlimit:2;opacity:0.60538121;"/><path d="M 31.175 21.589 L 38.348 20.454 C 38.363 20.451 38.377 20.461 38.38 20.477 L 38.832 23.334 C 38.835 23.349 38.824 23.363 38.809 23.365 L 31.637 24.501 C 31.622 24.503 31.607 24.493 31.605 24.478 L 31.152 21.621 C 31.15 21.606 31.16 21.592 31.175 21.589 Z" style="fill:none;stroke:#116000;stroke-width:0.2022403415571701;stroke-miterlimit:2;"/><path d="M 9.936 27.948 L 17.108 26.813 C 17.123 26.81 17.138 26.82 17.14 26.836 L 17.593 29.693 C 17.595 29.708 17.585 29.722 17.57 29.724 L 10.397 30.86 C 10.382 30.862 10.368 30.852 10.366 30.837 L 9.913 27.98 C 9.91 27.965 9.921 27.951 9.936 27.948 Z" style="stroke:none;fill:#0EAA0F;stroke-miterlimit:2;opacity:0.60538121;"/><path d="M 9.936 27.948 L 17.108 26.813 C 17.123 26.81 17.138 26.82 17.14 26.836 L 17.593 29.693 C 17.595 29.708 17.585 29.722 17.57 29.724 L 10.397 30.86 C 10.382 30.862 10.368 30.852 10.366 30.837 L 9.913 27.98 C 9.91 27.965 9.921 27.951 9.936 27.948 Z" style="fill:none;stroke:#116000;stroke-width:0.2022403415571701;stroke-miterlimit:2;"/><path d="M 17.212 26.796 L 24.385 25.66 C 24.4 25.658 24.414 25.668 24.417 25.683 L 24.869 28.54 C 24.872 28.556 24.861 28.57 24.846 28.572 L 17.674 29.708 C 17.659 29.71 17.644 29.7 17.642 29.685 L 17.189 26.828 C 17.187 26.813 17.197 26.798 17.212 26.796 Z" style="stroke:none;fill:#0EAA0F;stroke-miterlimit:2;opacity:0.60538121;"/><path d="M 17.212 26.796 L 24.385 25.66 C 24.4 25.658 24.414 25.668 24.417 25.683 L 24.869 28.54 C 24.872 28.556 24.861 28.57 24.846 28.572 L 17.674 29.708 C 17.659 29.71 17.644 29.7 17.642 29.685 L 17.189 26.828 C 17.187 26.813 17.197 26.798 17.212 26.796 Z" style="fill:none;stroke:#116000;stroke-width:0.2022403415571701;stroke-miterlimit:2;"/><path d="M 24.362 25.664 L 31.534 24.528 C 31.549 24.526 31.564 24.536 31.566 24.551 L 32.019 27.408 C 32.021 27.424 32.011 27.438 31.996 27.44 L 24.823 28.576 C 24.808 28.578 24.794 28.568 24.792 28.553 L 24.339 25.696 C 24.336 25.681 24.347 25.666 24.362 25.664 Z" style="stroke:none;fill:#0EAA0F;stroke-miterlimit:2;opacity:0.60538121;"/><path d="M 24.362 25.664 L 31.534 24.528 C 31.549 24.526 31.564 24.536 31.566 24.551 L 32.019 27.408 C 32.021 27.424 32.011 27.438 31.996 27.44 L 24.823 28.576 C 24.808 28.578 24.794 28.568 24.792 28.553 L 24.339 25.696 C 24.336 25.681 24.347 25.666 24.362 25.664 Z" style="fill:none;stroke:#116000;stroke-width:0.2022403415571701;stroke-miterlimit:2;"/><path d="M 31.638 24.512 L 38.811 23.376 C 38.826 23.374 38.84 23.384 38.843 23.399 L 39.295 26.256 C 39.298 26.271 39.287 26.286 39.272 26.288 L 32.1 27.424 C 32.085 27.426 32.07 27.416 32.068 27.401 L 31.615 24.544 C 31.613 24.528 31.623 24.514 31.638 24.512 Z" style="stroke:none;fill:#0EAA0F;stroke-miterlimit:2;opacity:0.60538121;"/><path d="M 31.638 24.512 L 38.811 23.376 C 38.826 23.374 38.84 23.384 38.843 23.399 L 39.295 26.256 C 39.298 26.271 39.287 26.286 39.272 26.288 L 32.1 27.424 C 32.085 27.426 32.07 27.416 32.068 27.401 L 31.615 24.544 C 31.613 24.528 31.623 24.514 31.638 24.512 Z" style="fill:none;stroke:#116000;stroke-width:0.2022403415571701;stroke-miterlimit:2;"/><path d="M 10.392 30.828 L 17.565 29.692 C 17.58 29.69 17.594 29.7 17.596 29.715 L 18.049 32.572 C 18.051 32.587 18.041 32.602 18.026 32.604 L 10.853 33.74 C 10.838 33.742 10.824 33.732 10.822 33.717 L 10.369 30.86 C 10.367 30.845 10.377 30.83 10.392 30.828 Z" style="stroke:none;fill:#0EAA0F;stroke-miterlimit:2;opacity:0.60538121;"/><path d="M 10.392 30.828 L 17.565 29.692 C 17.58 29.69 17.594 29.7 17.596 29.715 L 18.049 32.572 C 18.051 32.587 18.041 32.602 18.026 32.604 L 10.853 33.74 C 10.838 33.742 10.824 33.732 10.822 33.717 L 10.369 30.86 C 10.367 30.845 10.377 30.83 10.392 30.828 Z" style="fill:none;stroke:#116000;stroke-width:0.2022403415571701;stroke-miterlimit:2;"/><path d="M 17.669 29.676 L 24.841 28.54 C 24.856 28.538 24.87 28.548 24.873 28.563 L 25.325 31.42 C 25.328 31.435 25.318 31.45 25.302 31.452 L 18.13 32.588 C 18.115 32.59 18.101 32.58 18.098 32.565 L 17.646 29.708 C 17.643 29.692 17.654 29.678 17.669 29.676 Z" style="stroke:none;fill:#0EAA0F;stroke-miterlimit:2;opacity:0.60538121;"/><path d="M 17.669 29.676 L 24.841 28.54 C 24.856 28.538 24.87 28.548 24.873 28.563 L 25.325 31.42 C 25.328 31.435 25.318 31.45 25.302 31.452 L 18.13 32.588 C 18.115 32.59 18.101 32.58 18.098 32.565 L 17.646 29.708 C 17.643 29.692 17.654 29.678 17.669 29.676 Z" style="fill:none;stroke:#116000;stroke-width:0.2022403415571701;stroke-miterlimit:2;"/><path d="M 24.818 28.544 L 31.991 27.408 C 32.006 27.406 32.02 27.416 32.022 27.431 L 32.475 30.288 C 32.477 30.303 32.467 30.318 32.452 30.32 L 25.28 31.456 C 25.264 31.458 25.25 31.448 25.248 31.433 L 24.795 28.575 C 24.793 28.56 24.803 28.546 24.818 28.544 Z" style="stroke:none;fill:#0EAA0F;stroke-miterlimit:2;opacity:0.60538121;"/><path d="M 24.818 28.544 L 31.991 27.408 C 32.006 27.406 32.02 27.416 32.022 27.431 L 32.475 30.288 C 32.477 30.303 32.467 30.318 32.452 30.32 L 25.28 31.456 C 25.264 31.458 25.25 31.448 25.248 31.433 L 24.795 28.575 C 24.793 28.56 24.803 28.546 24.818 28.544 Z" style="fill:none;stroke:#116000;stroke-width:0.2022403415571701;stroke-miterlimit:2;"/><path d="M 32.095 27.392 L 39.267 26.256 C 39.282 26.254 39.296 26.264 39.299 26.279 L 39.751 29.136 C 39.754 29.151 39.744 29.165 39.728 29.168 L 32.556 30.303 C 32.541 30.306 32.527 30.296 32.524 30.28 L 32.072 27.423 C 32.069 27.408 32.08 27.394 32.095 27.392 Z" style="stroke:none;fill:#0EAA0F;stroke-miterlimit:2;opacity:0.60538121;"/><path d="M 32.095 27.392 L 39.267 26.256 C 39.282 26.254 39.296 26.264 39.299 26.279 L 39.751 29.136 C 39.754 29.151 39.744 29.165 39.728 29.168 L 32.556 30.303 C 32.541 30.306 32.527 30.296 32.524 30.28 L 32.072 27.423 C 32.069 27.408 32.08 27.394 32.095 27.392 Z" style="fill:none;stroke:#116000;stroke-width:0.2022403415571701;stroke-miterlimit:2;"/><path d="M 10.855 33.751 L 18.028 32.615 C 18.043 32.613 18.057 32.623 18.059 32.638 L 18.512 35.495 C 18.514 35.51 18.504 35.524 18.489 35.527 L 11.317 36.662 C 11.301 36.665 11.287 36.655 11.285 36.639 L 10.832 33.782 C 10.83 33.767 10.84 33.753 10.855 33.751 Z" style="stroke:none;fill:#0EAA0F;stroke-miterlimit:2;opacity:0.60538121;"/><path d="M 10.855 33.751 L 18.028 32.615 C 18.043 32.613 18.057 32.623 18.059 32.638 L 18.512 35.495 C 18.514 35.51 18.504 35.524 18.489 35.527 L 11.317 36.662 C 11.301 36.665 11.287 36.655 11.285 36.639 L 10.832 33.782 C 10.83 33.767 10.84 33.753 10.855 33.751 Z" style="fill:none;stroke:#116000;stroke-width:0.2022403415571701;stroke-miterlimit:2;"/><path d="M 18.132 32.598 L 25.304 31.463 C 25.319 31.46 25.333 31.471 25.336 31.486 L 25.789 34.343 C 25.791 34.358 25.781 34.372 25.765 34.375 L 18.593 35.51 C 18.578 35.513 18.564 35.502 18.561 35.487 L 18.109 32.63 C 18.106 32.615 18.117 32.601 18.132 32.598 Z" style="stroke:none;fill:#0EAA0F;stroke-miterlimit:2;opacity:0.60538121;"/><path d="M 18.132 32.598 L 25.304 31.463 C 25.319 31.46 25.333 31.471 25.336 31.486 L 25.789 34.343 C 25.791 34.358 25.781 34.372 25.765 34.375 L 18.593 35.51 C 18.578 35.513 18.564 35.502 18.561 35.487 L 18.109 32.63 C 18.106 32.615 18.117 32.601 18.132 32.598 Z" style="fill:none;stroke:#116000;stroke-width:0.2022403415571701;stroke-miterlimit:2;"/><path d="M 25.281 31.466 L 32.454 30.331 C 32.469 30.328 32.483 30.339 32.485 30.354 L 32.938 33.211 C 32.94 33.226 32.93 33.24 32.915 33.243 L 25.743 34.378 C 25.727 34.381 25.713 34.37 25.711 34.355 L 25.258 31.498 C 25.256 31.483 25.266 31.469 25.281 31.466 Z" style="stroke:none;fill:#0EAA0F;stroke-miterlimit:2;opacity:0.60538121;"/><path d="M 25.281 31.466 L 32.454 30.331 C 32.469 30.328 32.483 30.339 32.485 30.354 L 32.938 33.211 C 32.94 33.226 32.93 33.24 32.915 33.243 L 25.743 34.378 C 25.727 34.381 25.713 34.37 25.711 34.355 L 25.258 31.498 C 25.256 31.483 25.266 31.469 25.281 31.466 Z" style="fill:none;stroke:#116000;stroke-width:0.2022403415571701;stroke-miterlimit:2;"/><path d="M 32.558 30.314 L 39.73 29.179 C 39.745 29.176 39.759 29.187 39.762 29.202 L 40.215 32.059 C 40.217 32.074 40.207 32.088 40.191 32.091 L 33.019 33.226 C 33.004 33.229 32.99 33.218 32.987 33.203 L 32.535 30.346 C 32.532 30.331 32.543 30.317 32.558 30.314 Z" style="stroke:none;fill:#0EAA0F;stroke-miterlimit:2;opacity:0.60538121;"/><path d="M 32.558 30.314 L 39.73 29.179 C 39.745 29.176 39.759 29.187 39.762 29.202 L 40.215 32.059 C 40.217 32.074 40.207 32.088 40.191 32.091 L 33.019 33.226 C 33.004 33.229 32.99 33.218 32.987 33.203 L 32.535 30.346 C 32.532 30.331 32.543 30.317 32.558 30.314 Z" style="fill:none;stroke:#116000;stroke-width:0.2022403415571701;stroke-miterlimit:2;"/></g><rect x="23.255" y="23.678" width="16.802" height="14.366" transform="matrix(0.988,-0.156,0.156,0.988,-4.44,5.331)" fill="rgb(227,227,227)"/><g><path d="M 24.424 27.841 L 27.698 27.323 C 27.713 27.32 27.728 27.331 27.73 27.346 L 29.22 36.75 C 29.222 36.765 29.212 36.78 29.197 36.782 L 25.923 37.301 C 25.908 37.303 25.893 37.292 25.891 37.277 L 24.401 27.873 C 24.398 27.858 24.409 27.844 24.424 27.841 Z" style="stroke:none;fill:#278CE2;stroke-miterlimit:2;opacity:0.8161435;"/><path d="M 27.43 25.569 L 30.704 25.051 C 30.719 25.049 30.734 25.059 30.736 25.075 L 32.504 36.23 C 32.506 36.245 32.495 36.26 32.48 36.262 L 29.207 36.781 C 29.191 36.783 29.177 36.773 29.174 36.757 L 27.407 25.602 C 27.404 25.586 27.415 25.572 27.43 25.569 Z" style="stroke:none;fill:#E2313D;stroke-miterlimit:2;opacity:0.8161435;"/><path d="M 31.158 27.852 L 34.431 27.334 C 34.447 27.332 34.461 27.342 34.464 27.358 L 35.787 35.71 C 35.79 35.726 35.779 35.74 35.764 35.742 L 32.49 36.261 C 32.475 36.263 32.46 36.253 32.458 36.237 L 31.134 27.885 C 31.132 27.869 31.142 27.855 31.158 27.852 Z" style="stroke:none;fill:#E7D634;stroke-miterlimit:2;opacity:0.8161435;"/><path d="M 34.122 25.318 L 37.396 24.8 C 37.411 24.797 37.426 24.808 37.428 24.823 L 39.071 35.19 C 39.073 35.206 39.062 35.22 39.047 35.223 L 35.774 35.741 C 35.758 35.743 35.744 35.733 35.741 35.717 L 34.099 25.35 C 34.096 25.335 34.107 25.32 34.122 25.318 Z" style="stroke:none;fill:#24AA0E;stroke-miterlimit:2;opacity:0.8161435;"/></g></g></g></svg>