<?xml version="1.0" standalone="no"?><!-- Generator: Gravit.io --><svg xmlns="http://www.w3.org/2000/svg" xmlns:xlink="http://www.w3.org/1999/xlink" style="isolation:isolate" viewBox="0 0 48 48" width="48" height="48"><defs><clipPath id="_clipPath_kKuuRwjIzINsil6TiUgEtBdF5ZOl1vQz"><rect width="48" height="48"/></clipPath></defs><g clip-path="url(#_clipPath_kKuuRwjIzINsil6TiUgEtBdF5ZOl1vQz)"><g><defs><radialGradient id="_rgradient_6" fx="6392.8567%" fy="98736.216%" cx="6392.8567%" cy="98736.216%" r="6011.2034%"><stop offset="0%" style="stop-color:#A7A7A7"/><stop offset="100%" style="stop-color:#4E4E4E"/></radialGradient></defs><path d="M 6.37 5.381 L 35.024 0.841 C 36.814 0.557 38.496 1.78 38.78 3.57 L 44.359 38.811 C 44.643 40.6 43.42 42.283 41.63 42.567 L 12.976 47.107 C 11.187 47.391 9.504 46.168 9.22 44.378 L 3.641 9.137 C 3.357 7.348 4.58 5.665 6.37 5.381 Z" style="stroke:none;fill:url(#_rgradient_6);stroke-miterlimit:10;"/><path d="M 6.489 6.8 L 35.348 2.227 C 36.43 2.056 37.446 2.794 37.618 3.876 L 43.16 38.879 C 43.331 39.96 42.592 40.977 41.511 41.148 L 12.652 45.721 C 11.57 45.892 10.554 45.153 10.382 44.072 L 4.841 9.069 C 4.669 7.988 5.408 6.971 6.489 6.8 Z" style="stroke:none;fill:#FFFFFF;stroke-miterlimit:10;"/><defs><linearGradient id="_lgradient_10" x1="-0.21737630566773075" y1="1.0264892962589887" x2="0.8465901790441641" y2="-0.004682486288180243"><stop offset="0%" style="stop-color:#CCCCCC"/><stop offset="100%" style="stop-color:#FFFFFF"/></linearGradient><linearGradient id="_lgradient_11" x1="-0.21737630566773075" y1="1.0264892962589887" x2="0.8465901790441641" y2="-0.004682486288180243"><stop offset="0%" style="stop-color:#CCCCCC"/><stop offset="100%" style="stop-color:#FFFFFF"/></linearGradient></defs><g style="mix-blend-mode:normal;" opacity="0.91687658"><path d="M 7.234 7.444 L 34.84 3.07 C 35.921 2.899 36.938 3.637 37.109 4.719 L 42.415 38.234 C 42.587 39.316 41.848 40.332 40.767 40.504 L 13.16 44.878 C 12.079 45.049 11.062 44.31 10.891 43.229 L 5.585 9.713 C 5.414 8.632 6.152 7.615 7.234 7.444 Z" style="stroke:none;fill:url(#_lgradient_11);stroke-miterlimit:10;"/></g><path d=" M 39.451 15.002 L 39.273 13.878 L 37.365 1.825 L 37.365 1.825 L 24.29 3.478 L 24.29 3.478 L 39.451 15.002 Z " fill-rule="evenodd" fill="rgb(78,78,78)"/><defs><radialGradient id="_rgradient_7" fx="54.90589706116281%" fy="56.604003379497314%" cx="54.90589706116281%" cy="56.604003379497314%" r="3535.5339%"><stop offset="0%" style="stop-color:rgba(246,172,84,0.59500003)"/><stop offset="100%" style="stop-color:rgba(249,231,59,0.5)"/></radialGradient></defs><path d="M 10.909 18.966 L 34.666 15.202 C 35.359 15.092 36.01 15.565 36.12 16.258 L 38.694 32.517 C 38.804 33.21 38.331 33.861 37.638 33.971 L 13.881 37.735 C 13.188 37.845 12.537 37.372 12.427 36.679 L 9.853 20.419 C 9.743 19.727 10.217 19.076 10.909 18.966 Z" style="stroke:none;fill:url(#_rgradient_7);stroke-miterlimit:10;"/><path d=" M 13.617 27.239 L 15.497 26.941 L 17.943 32.089 L 19.015 21.53 L 33.117 19.295 L 33.347 19.344" fill="none" vector-effect="non-scaling-stroke" stroke-width="1.397" stroke="rgb(73,73,73)" stroke-linejoin="miter" stroke-linecap="butt" stroke-miterlimit="4"/><path d=" M 23.234 22.761 L 31.44 30.864 L 31.44 30.864" fill="rgb(78,78,78)" vector-effect="non-scaling-stroke" stroke-width="1.357" stroke="rgb(73,73,73)" stroke-linejoin="miter" stroke-linecap="butt" stroke-miterlimit="4"/><path d=" M 30.173 21.662 L 24.149 32.146 L 24.149 32.146" fill="rgb(0,0,0)" vector-effect="non-scaling-stroke" stroke-width="0.918" stroke="rgb(78,78,78)" stroke-linejoin="miter" stroke-linecap="butt" stroke-miterlimit="4"/></g></g></svg>