<?xml version="1.0" standalone="no"?><!-- Generator: Gravit.io --><svg xmlns="http://www.w3.org/2000/svg" xmlns:xlink="http://www.w3.org/1999/xlink" style="isolation:isolate" viewBox="0 0 48 48" width="48" height="48"><defs><clipPath id="_clipPath_MU8iFcUcOCqN6DJrP9lnUwtQatVVQ4Mi"><rect width="48" height="48"/></clipPath></defs><g clip-path="url(#_clipPath_MU8iFcUcOCqN6DJrP9lnUwtQatVVQ4Mi)"><g><defs><radialGradient id="_rgradient_2" fx="6392.8566%" fy="98736.218%" cx="6392.8566%" cy="98736.218%" r="6011.2034%"><stop offset="0%" style="stop-color:#E3ACC7"/><stop offset="100%" style="stop-color:#7A1160"/></radialGradient></defs><path d="M 6.37 5.384 L 35.024 0.844 C 36.814 0.561 38.496 1.783 38.78 3.573 L 44.359 38.814 C 44.643 40.604 43.42 42.287 41.63 42.57 L 12.976 47.11 C 11.186 47.394 9.504 46.171 9.22 44.382 L 3.641 9.14 C 3.357 7.351 4.58 5.668 6.37 5.384 Z" style="stroke:none;fill:url(#_rgradient_2);stroke-miterlimit:10;"/><path d="M 6.489 6.803 L 35.348 2.23 C 36.43 2.059 37.446 2.798 37.618 3.879 L 43.159 38.882 C 43.331 39.963 42.592 40.98 41.511 41.152 L 12.652 45.724 C 11.57 45.895 10.554 45.157 10.382 44.076 L 4.841 9.072 C 4.669 7.991 5.408 6.974 6.489 6.803 Z" style="stroke:none;fill:#FFFFFF;stroke-miterlimit:10;"/><defs><linearGradient id="_lgradient_4" x1="-0.21737630566773075" y1="1.0264892962589887" x2="0.8465901790441641" y2="-0.004682486288180243"><stop offset="0%" style="stop-color:#CCCCCC"/><stop offset="100%" style="stop-color:#FFFFFF"/></linearGradient><linearGradient id="_lgradient_5" x1="-0.21737630566773075" y1="1.0264892962589887" x2="0.8465901790441641" y2="-0.004682486288180243"><stop offset="0%" style="stop-color:#CCCCCC"/><stop offset="100%" style="stop-color:#FFFFFF"/></linearGradient></defs><g style="mix-blend-mode:normal;" opacity="0.91687658"><path d="M 7.233 7.447 L 34.84 3.073 C 35.921 2.902 36.938 3.641 37.109 4.722 L 42.415 38.238 C 42.587 39.319 41.848 40.336 40.767 40.507 L 13.16 44.881 C 12.079 45.053 11.062 44.314 10.891 43.233 L 5.585 9.717 C 5.413 8.636 6.152 7.619 7.233 7.447 Z" style="stroke:none;fill:url(#_lgradient_5);stroke-miterlimit:10;"/></g><path d=" M 39.451 15.005 L 39.273 13.881 L 37.365 1.828 L 37.365 1.828 L 24.29 3.481 L 24.29 3.481 L 39.451 15.005 Z " fill-rule="evenodd" fill="rgb(122,17,96)"/><g><path d="M 9.023 22.207 L 16.196 21.07 C 16.211 21.068 16.225 21.078 16.228 21.093 L 16.68 23.952 C 16.683 23.968 16.672 23.982 16.657 23.984 L 9.485 25.121 C 9.47 25.123 9.455 25.113 9.453 25.097 L 9 22.238 C 8.998 22.223 9.008 22.209 9.023 22.207 Z" style="stroke:none;fill:#D76CFF;stroke-miterlimit:10;"/><path d="M 9.023 22.207 L 16.196 21.07 C 16.211 21.068 16.225 21.078 16.228 21.093 L 16.68 23.952 C 16.683 23.968 16.672 23.982 16.657 23.984 L 9.485 25.121 C 9.47 25.123 9.455 25.113 9.453 25.097 L 9 22.238 C 8.998 22.223 9.008 22.209 9.023 22.207 Z" style="fill:none;stroke:#FFFCFC;stroke-width:0.2022403415571701;stroke-miterlimit:2;"/><path d="M 16.3 21.054 L 23.472 19.917 C 23.488 19.915 23.502 19.925 23.504 19.94 L 23.957 22.799 C 23.959 22.815 23.949 22.829 23.934 22.831 L 16.761 23.968 C 16.746 23.97 16.732 23.96 16.73 23.945 L 16.277 21.086 C 16.275 21.07 16.285 21.056 16.3 21.054 Z" style="stroke:none;fill:#D76CFF;stroke-miterlimit:2;"/><path d="M 16.3 21.054 L 23.472 19.917 C 23.488 19.915 23.502 19.925 23.504 19.94 L 23.957 22.799 C 23.959 22.815 23.949 22.829 23.934 22.831 L 16.761 23.968 C 16.746 23.97 16.732 23.96 16.73 23.945 L 16.277 21.086 C 16.275 21.07 16.285 21.056 16.3 21.054 Z" style="fill:none;stroke:#FFFCFC;stroke-width:0.2022403415571701;stroke-miterlimit:2;"/><path d="M 23.45 19.921 L 30.622 18.785 C 30.637 18.782 30.651 18.792 30.654 18.808 L 31.106 21.667 C 31.109 21.682 31.098 21.696 31.083 21.698 L 23.911 22.835 C 23.896 22.837 23.881 22.827 23.879 22.812 L 23.426 19.953 C 23.424 19.938 23.434 19.923 23.45 19.921 Z" style="stroke:none;fill:#D76CFF;stroke-miterlimit:2;"/><path d="M 23.45 19.921 L 30.622 18.785 C 30.637 18.782 30.651 18.792 30.654 18.808 L 31.106 21.667 C 31.109 21.682 31.098 21.696 31.083 21.698 L 23.911 22.835 C 23.896 22.837 23.881 22.827 23.879 22.812 L 23.426 19.953 C 23.424 19.938 23.434 19.923 23.45 19.921 Z" style="fill:none;stroke:#FFFCFC;stroke-width:0.2022403415571701;stroke-miterlimit:2;"/><path d="M 30.726 18.768 L 37.898 17.632 C 37.914 17.629 37.928 17.64 37.93 17.655 L 38.383 20.514 C 38.385 20.529 38.375 20.543 38.36 20.545 L 31.187 21.682 C 31.172 21.684 31.158 21.674 31.156 21.659 L 30.703 18.8 C 30.701 18.785 30.711 18.77 30.726 18.768 Z" style="stroke:none;fill:#D76CFF;stroke-miterlimit:2;"/><path d="M 30.726 18.768 L 37.898 17.632 C 37.914 17.629 37.928 17.64 37.93 17.655 L 38.383 20.514 C 38.385 20.529 38.375 20.543 38.36 20.545 L 31.187 21.682 C 31.172 21.684 31.158 21.674 31.156 21.659 L 30.703 18.8 C 30.701 18.785 30.711 18.77 30.726 18.768 Z" style="fill:none;stroke:#FFFCFC;stroke-width:0.2022403415571701;stroke-miterlimit:2;"/><path d="M 9.473 25.045 L 16.645 23.909 C 16.66 23.907 16.675 23.917 16.677 23.932 L 17.13 26.791 C 17.132 26.806 17.122 26.82 17.107 26.823 L 9.934 27.959 C 9.919 27.962 9.905 27.951 9.903 27.936 L 9.45 25.077 C 9.447 25.062 9.458 25.048 9.473 25.045 Z" style="stroke:none;fill:#D76CFF;stroke-miterlimit:2;opacity:0.60538121;"/><path d="M 9.473 25.045 L 16.645 23.909 C 16.66 23.907 16.675 23.917 16.677 23.932 L 17.13 26.791 C 17.132 26.806 17.122 26.82 17.107 26.823 L 9.934 27.959 C 9.919 27.962 9.905 27.951 9.903 27.936 L 9.45 25.077 C 9.447 25.062 9.458 25.048 9.473 25.045 Z" style="fill:none;stroke:#FFFCFC;stroke-width:0.2022403415571701;stroke-miterlimit:2;"/><path d="M 16.749 23.892 L 23.922 22.756 C 23.937 22.754 23.951 22.764 23.954 22.779 L 24.406 25.638 C 24.409 25.653 24.398 25.668 24.383 25.67 L 17.211 26.806 C 17.196 26.809 17.181 26.798 17.179 26.783 L 16.726 23.924 C 16.724 23.909 16.734 23.895 16.749 23.892 Z" style="stroke:none;fill:#D76CFF;stroke-miterlimit:2;opacity:0.60538121;"/><path d="M 16.749 23.892 L 23.922 22.756 C 23.937 22.754 23.951 22.764 23.954 22.779 L 24.406 25.638 C 24.409 25.653 24.398 25.668 24.383 25.67 L 17.211 26.806 C 17.196 26.809 17.181 26.798 17.179 26.783 L 16.726 23.924 C 16.724 23.909 16.734 23.895 16.749 23.892 Z" style="fill:none;stroke:#FFFCFC;stroke-width:0.2022403415571701;stroke-miterlimit:2;"/><path d="M 23.899 22.76 L 31.071 21.623 C 31.086 21.621 31.101 21.631 31.103 21.646 L 31.556 24.505 C 31.558 24.52 31.548 24.535 31.533 24.537 L 24.36 25.674 C 24.345 25.676 24.331 25.666 24.329 25.65 L 23.876 22.791 C 23.873 22.776 23.884 22.762 23.899 22.76 Z" style="stroke:none;fill:#D76CFF;stroke-miterlimit:2;opacity:0.60538121;"/><path d="M 23.899 22.76 L 31.071 21.623 C 31.086 21.621 31.101 21.631 31.103 21.646 L 31.556 24.505 C 31.558 24.52 31.548 24.535 31.533 24.537 L 24.36 25.674 C 24.345 25.676 24.331 25.666 24.329 25.65 L 23.876 22.791 C 23.873 22.776 23.884 22.762 23.899 22.76 Z" style="fill:none;stroke:#FFFCFC;stroke-width:0.2022403415571701;stroke-miterlimit:2;"/><path d="M 31.175 21.607 L 38.348 20.47 C 38.363 20.468 38.377 20.478 38.38 20.493 L 38.832 23.352 C 38.835 23.368 38.824 23.382 38.809 23.384 L 31.637 24.521 C 31.622 24.523 31.607 24.513 31.605 24.498 L 31.152 21.639 C 31.15 21.623 31.16 21.609 31.175 21.607 Z" style="stroke:none;fill:#D76CFF;stroke-miterlimit:2;opacity:0.60538121;"/><path d="M 31.175 21.607 L 38.348 20.47 C 38.363 20.468 38.377 20.478 38.38 20.493 L 38.832 23.352 C 38.835 23.368 38.824 23.382 38.809 23.384 L 31.637 24.521 C 31.622 24.523 31.607 24.513 31.605 24.498 L 31.152 21.639 C 31.15 21.623 31.16 21.609 31.175 21.607 Z" style="fill:none;stroke:#FFFCFC;stroke-width:0.2022403415571701;stroke-miterlimit:2;"/><path d="M 9.936 27.97 L 17.108 26.834 C 17.123 26.831 17.138 26.842 17.14 26.857 L 17.593 29.716 C 17.595 29.731 17.585 29.745 17.57 29.748 L 10.397 30.884 C 10.382 30.886 10.368 30.876 10.366 30.861 L 9.913 28.002 C 9.911 27.987 9.921 27.973 9.936 27.97 Z" style="stroke:none;fill:#D76CFF;stroke-miterlimit:2;opacity:0.60538121;"/><path d="M 9.936 27.97 L 17.108 26.834 C 17.123 26.831 17.138 26.842 17.14 26.857 L 17.593 29.716 C 17.595 29.731 17.585 29.745 17.57 29.748 L 10.397 30.884 C 10.382 30.886 10.368 30.876 10.366 30.861 L 9.913 28.002 C 9.911 27.987 9.921 27.973 9.936 27.97 Z" style="fill:none;stroke:#FFFCFC;stroke-width:0.2022403415571701;stroke-miterlimit:2;"/><path d="M 17.213 26.817 L 24.385 25.681 C 24.4 25.678 24.414 25.689 24.417 25.704 L 24.869 28.563 C 24.872 28.578 24.861 28.592 24.846 28.595 L 17.674 29.731 C 17.659 29.733 17.644 29.723 17.642 29.708 L 17.189 26.849 C 17.187 26.834 17.197 26.82 17.213 26.817 Z" style="stroke:none;fill:#D76CFF;stroke-miterlimit:2;opacity:0.60538121;"/><path d="M 17.213 26.817 L 24.385 25.681 C 24.4 25.678 24.414 25.689 24.417 25.704 L 24.869 28.563 C 24.872 28.578 24.861 28.592 24.846 28.595 L 17.674 29.731 C 17.659 29.733 17.644 29.723 17.642 29.708 L 17.189 26.849 C 17.187 26.834 17.197 26.82 17.213 26.817 Z" style="fill:none;stroke:#FFFCFC;stroke-width:0.2022403415571701;stroke-miterlimit:2;"/><path d="M 24.362 25.684 L 31.534 24.548 C 31.549 24.546 31.564 24.556 31.566 24.571 L 32.019 27.43 C 32.021 27.445 32.011 27.459 31.996 27.462 L 24.823 28.598 C 24.808 28.601 24.794 28.59 24.792 28.575 L 24.339 25.716 C 24.337 25.701 24.347 25.687 24.362 25.684 Z" style="stroke:none;fill:#D76CFF;stroke-miterlimit:2;opacity:0.60538121;"/><path d="M 24.362 25.684 L 31.534 24.548 C 31.549 24.546 31.564 24.556 31.566 24.571 L 32.019 27.43 C 32.021 27.445 32.011 27.459 31.996 27.462 L 24.823 28.598 C 24.808 28.601 24.794 28.59 24.792 28.575 L 24.339 25.716 C 24.337 25.701 24.347 25.687 24.362 25.684 Z" style="fill:none;stroke:#FFFCFC;stroke-width:0.2022403415571701;stroke-miterlimit:2;"/><path d="M 31.639 24.531 L 38.811 23.395 C 38.826 23.393 38.84 23.403 38.843 23.418 L 39.295 26.277 C 39.298 26.292 39.287 26.307 39.272 26.309 L 32.1 27.445 C 32.085 27.448 32.07 27.437 32.068 27.422 L 31.615 24.563 C 31.613 24.548 31.623 24.534 31.639 24.531 Z" style="stroke:none;fill:#D76CFF;stroke-miterlimit:2;opacity:0.60538121;"/><path d="M 31.639 24.531 L 38.811 23.395 C 38.826 23.393 38.84 23.403 38.843 23.418 L 39.295 26.277 C 39.298 26.292 39.287 26.307 39.272 26.309 L 32.1 27.445 C 32.085 27.448 32.07 27.437 32.068 27.422 L 31.615 24.563 C 31.613 24.548 31.623 24.534 31.639 24.531 Z" style="fill:none;stroke:#FFFCFC;stroke-width:0.2022403415571701;stroke-miterlimit:2;"/><path d="M 10.392 30.852 L 17.565 29.715 C 17.58 29.713 17.594 29.723 17.596 29.739 L 18.049 32.598 C 18.051 32.613 18.041 32.627 18.026 32.629 L 10.854 33.766 C 10.838 33.768 10.824 33.758 10.822 33.743 L 10.369 30.884 C 10.367 30.868 10.377 30.854 10.392 30.852 Z" style="stroke:none;fill:#D76CFF;stroke-miterlimit:2;opacity:0.60538121;"/><path d="M 10.392 30.852 L 17.565 29.715 C 17.58 29.713 17.594 29.723 17.596 29.739 L 18.049 32.598 C 18.051 32.613 18.041 32.627 18.026 32.629 L 10.854 33.766 C 10.838 33.768 10.824 33.758 10.822 33.743 L 10.369 30.884 C 10.367 30.868 10.377 30.854 10.392 30.852 Z" style="fill:none;stroke:#FFFCFC;stroke-width:0.2022403415571701;stroke-miterlimit:2;"/><path d="M 17.669 29.699 L 24.841 28.563 C 24.856 28.56 24.87 28.57 24.873 28.586 L 25.326 31.445 C 25.328 31.46 25.318 31.474 25.302 31.476 L 18.13 32.613 C 18.115 32.615 18.101 32.605 18.098 32.59 L 17.646 29.731 C 17.643 29.716 17.654 29.701 17.669 29.699 Z" style="stroke:none;fill:#D76CFF;stroke-miterlimit:2;opacity:0.60538121;"/><path d="M 17.669 29.699 L 24.841 28.563 C 24.856 28.56 24.87 28.57 24.873 28.586 L 25.326 31.445 C 25.328 31.46 25.318 31.474 25.302 31.476 L 18.13 32.613 C 18.115 32.615 18.101 32.605 18.098 32.59 L 17.646 29.731 C 17.643 29.716 17.654 29.701 17.669 29.699 Z" style="fill:none;stroke:#FFFCFC;stroke-width:0.2022403415571701;stroke-miterlimit:2;"/><path d="M 24.818 28.566 L 31.991 27.43 C 32.006 27.427 32.02 27.438 32.022 27.453 L 32.475 30.312 C 32.477 30.327 32.467 30.341 32.452 30.344 L 25.28 31.48 C 25.264 31.482 25.25 31.472 25.248 31.457 L 24.795 28.598 C 24.793 28.583 24.803 28.569 24.818 28.566 Z" style="stroke:none;fill:#D76CFF;stroke-miterlimit:2;opacity:0.60538121;"/><path d="M 24.818 28.566 L 31.991 27.43 C 32.006 27.427 32.02 27.438 32.022 27.453 L 32.475 30.312 C 32.477 30.327 32.467 30.341 32.452 30.344 L 25.28 31.48 C 25.264 31.482 25.25 31.472 25.248 31.457 L 24.795 28.598 C 24.793 28.583 24.803 28.569 24.818 28.566 Z" style="fill:none;stroke:#FFFCFC;stroke-width:0.2022403415571701;stroke-miterlimit:2;"/><path d="M 32.095 27.413 L 39.267 26.277 C 39.282 26.274 39.296 26.285 39.299 26.3 L 39.752 29.159 C 39.754 29.174 39.744 29.188 39.728 29.191 L 32.556 30.327 C 32.541 30.329 32.527 30.319 32.524 30.304 L 32.072 27.445 C 32.069 27.43 32.08 27.416 32.095 27.413 Z" style="stroke:none;fill:#D76CFF;stroke-miterlimit:2;opacity:0.60538121;"/><path d="M 32.095 27.413 L 39.267 26.277 C 39.282 26.274 39.296 26.285 39.299 26.3 L 39.752 29.159 C 39.754 29.174 39.744 29.188 39.728 29.191 L 32.556 30.327 C 32.541 30.329 32.527 30.319 32.524 30.304 L 32.072 27.445 C 32.069 27.43 32.08 27.416 32.095 27.413 Z" style="fill:none;stroke:#FFFCFC;stroke-width:0.2022403415571701;stroke-miterlimit:2;"/><path d="M 10.855 33.777 L 18.028 32.64 C 18.043 32.638 18.057 32.648 18.059 32.663 L 18.512 35.522 C 18.514 35.537 18.504 35.552 18.489 35.554 L 11.317 36.69 C 11.301 36.693 11.287 36.683 11.285 36.667 L 10.832 33.808 C 10.83 33.793 10.84 33.779 10.855 33.777 Z" style="stroke:none;fill:#D76CFF;stroke-miterlimit:2;opacity:0.60538121;"/><path d="M 10.855 33.777 L 18.028 32.64 C 18.043 32.638 18.057 32.648 18.059 32.663 L 18.512 35.522 C 18.514 35.537 18.504 35.552 18.489 35.554 L 11.317 36.69 C 11.301 36.693 11.287 36.683 11.285 36.667 L 10.832 33.808 C 10.83 33.793 10.84 33.779 10.855 33.777 Z" style="fill:none;stroke:#FFFCFC;stroke-width:0.2022403415571701;stroke-miterlimit:2;"/><path d="M 18.132 32.624 L 25.304 31.487 C 25.319 31.485 25.334 31.495 25.336 31.51 L 25.789 34.369 C 25.791 34.384 25.781 34.399 25.766 34.401 L 18.593 35.538 C 18.578 35.54 18.564 35.53 18.561 35.514 L 18.109 32.655 C 18.106 32.64 18.117 32.626 18.132 32.624 Z" style="stroke:none;fill:#D76CFF;stroke-miterlimit:2;opacity:0.60538121;"/><path d="M 18.132 32.624 L 25.304 31.487 C 25.319 31.485 25.334 31.495 25.336 31.51 L 25.789 34.369 C 25.791 34.384 25.781 34.399 25.766 34.401 L 18.593 35.538 C 18.578 35.54 18.564 35.53 18.561 35.514 L 18.109 32.655 C 18.106 32.64 18.117 32.626 18.132 32.624 Z" style="fill:none;stroke:#FFFCFC;stroke-width:0.2022403415571701;stroke-miterlimit:2;"/><path d="M 25.281 31.491 L 32.454 30.354 C 32.469 30.352 32.483 30.362 32.485 30.378 L 32.938 33.237 C 32.94 33.252 32.93 33.266 32.915 33.268 L 25.743 34.405 C 25.728 34.407 25.713 34.397 25.711 34.382 L 25.258 31.523 C 25.256 31.508 25.266 31.493 25.281 31.491 Z" style="stroke:none;fill:#D76CFF;stroke-miterlimit:2;opacity:0.60538121;"/><path d="M 25.281 31.491 L 32.454 30.354 C 32.469 30.352 32.483 30.362 32.485 30.378 L 32.938 33.237 C 32.94 33.252 32.93 33.266 32.915 33.268 L 25.743 34.405 C 25.728 34.407 25.713 34.397 25.711 34.382 L 25.258 31.523 C 25.256 31.508 25.266 31.493 25.281 31.491 Z" style="fill:none;stroke:#FFFCFC;stroke-width:0.2022403415571701;stroke-miterlimit:2;"/><path d="M 32.558 30.338 L 39.73 29.202 C 39.745 29.199 39.76 29.209 39.762 29.225 L 40.215 32.084 C 40.217 32.099 40.207 32.113 40.192 32.115 L 33.019 33.252 C 33.004 33.254 32.99 33.244 32.987 33.229 L 32.535 30.37 C 32.532 30.355 32.543 30.34 32.558 30.338 Z" style="stroke:none;fill:#D76CFF;stroke-miterlimit:2;opacity:0.60538121;"/><path d="M 32.558 30.338 L 39.73 29.202 C 39.745 29.199 39.76 29.209 39.762 29.225 L 40.215 32.084 C 40.217 32.099 40.207 32.113 40.192 32.115 L 33.019 33.252 C 33.004 33.254 32.99 33.244 32.987 33.229 L 32.535 30.37 C 32.532 30.355 32.543 30.34 32.558 30.338 Z" style="fill:none;stroke:#FFFCFC;stroke-width:0.2022403415571701;stroke-miterlimit:2;"/></g><g opacity="0.3"><radialGradient id="_rgradient_3" fx="4.163721500107914" fy="1.7298167949518017" cx="4.163721500107914" cy="1.7298167949518017" r="22.627417" gradientTransform="matrix(21.205,-3.36,1.173,7.409,13.361,25.841)" gradientUnits="userSpaceOnUse"><stop offset="0%" stop-opacity="1" style="stop-color:rgb(0,0,0)"/><stop offset="100%" stop-opacity="0" style="stop-color:rgb(0,0,0)"/></radialGradient><path d=" M 35.152 26.185 C 35.477 28.231 30.993 30.642 25.137 31.57 C 19.28 32.498 14.271 31.591 13.948 29.545 C 13.623 27.499 18.107 25.088 23.963 24.161 C 29.82 23.233 34.829 24.139 35.152 26.185 Z " fill-rule="evenodd" fill="url(#_rgradient_3)"/></g><g><g style="opacity:0.86363639;"><g opacity="0.86363639"><path d=" M 31.114 29.509 C 31.303 30.706 28.735 32.108 25.381 32.639 C 22.028 33.171 19.152 32.631 18.963 31.434 C 18.867 30.831 18.58 29.171 18.58 29.171 L 30.793 27.236 C 30.828 27.515 31.054 29.133 31.114 29.509 Z " fill="rgb(215,108,255)" vector-effect="non-scaling-stroke" stroke-width="0.399" stroke="rgb(255,243,255)" stroke-linejoin="miter" stroke-linecap="butt" stroke-miterlimit="4"/></g><g opacity="0.86363639"><path d=" M 30.766 27.067 C 30.962 28.307 28.388 29.746 25.015 30.28 C 21.643 30.815 18.75 30.243 18.553 29.002 C 18.357 27.762 20.932 26.324 24.304 25.789 C 27.677 25.255 30.57 25.827 30.766 27.067 L 30.766 27.067 L 30.766 27.067 Z " fill="rgb(215,108,255)" vector-effect="non-scaling-stroke" stroke-width="0.399" stroke="rgb(255,243,255)" stroke-linejoin="miter" stroke-linecap="butt" stroke-miterlimit="4"/></g></g><g style="opacity:0.86363639;"><g opacity="0.86363639"><path d=" M 30.745 27.178 C 30.934 28.375 28.366 29.777 25.012 30.308 C 21.659 30.84 18.783 30.3 18.594 29.103 C 18.498 28.5 18.211 26.84 18.211 26.84 L 30.424 24.905 C 30.459 25.184 30.685 26.802 30.745 27.178 Z " fill="rgb(215,108,255)" vector-effect="non-scaling-stroke" stroke-width="0.272" stroke="rgb(255,255,255)" stroke-linejoin="miter" stroke-linecap="butt" stroke-miterlimit="4"/></g><g opacity="0.86363639"><path d=" M 30.397 24.736 C 30.593 25.977 28.019 27.415 24.646 27.949 C 21.274 28.484 18.381 27.912 18.184 26.671 C 17.988 25.431 20.563 23.993 23.935 23.458 C 27.307 22.924 30.201 23.496 30.397 24.736 L 30.397 24.736 L 30.397 24.736 Z " fill="rgb(215,108,255)" vector-effect="non-scaling-stroke" stroke-width="0.272" stroke="rgb(255,255,255)" stroke-linejoin="miter" stroke-linecap="butt" stroke-miterlimit="4"/></g></g><g opacity="0.86363639"><path d=" M 30.383 24.896 C 30.573 26.093 28.005 27.495 24.651 28.026 C 21.297 28.558 18.422 28.018 18.232 26.821 C 18.137 26.218 17.85 24.558 17.85 24.558 L 30.062 22.623 C 30.097 22.902 30.324 24.52 30.383 24.896 L 30.383 24.896 Z " fill="rgb(215,108,255)" vector-effect="non-scaling-stroke" stroke-width="0.399" stroke="rgb(250,250,250)" stroke-linejoin="miter" stroke-linecap="butt" stroke-miterlimit="4"/></g><g opacity="0.86363639"><path d=" M 30.036 22.454 C 30.232 23.695 27.657 25.133 24.285 25.667 C 20.912 26.202 18.019 25.63 17.823 24.389 C 17.627 23.149 20.201 21.711 23.574 21.176 C 26.946 20.642 29.839 21.214 30.036 22.454 L 30.036 22.454 Z " fill="rgb(219,155,244)" vector-effect="non-scaling-stroke" stroke-width="0.399" stroke="rgb(255,255,255)" stroke-linejoin="miter" stroke-linecap="butt" stroke-miterlimit="4"/></g></g></g></g></svg>